# Blender v2.79 (sub 0) OBJ File: 'ball_split.blend'
# www.blender.org
mtllib ball.mtl
o ball_original.013
v 0.398607 0.058778 0.457365
v 0.383156 0.095105 0.409812
v 0.364058 0.095105 0.351033
v 0.348607 0.058778 0.303481
v 0.342705 -0.000000 0.285317
v 0.364057 -0.095106 0.351033
v 0.383156 -0.095106 0.409812
v 0.398607 -0.058778 0.457365
v 0.543893 -0.000000 0.404509
v 0.404508 -0.000000 0.475528
v 0.532667 0.058778 0.389058
v 0.466950 0.095105 0.298607
v 0.437561 0.058778 0.258156
v 0.426335 -0.000000 0.242705
v 0.348607 -0.058778 0.303481
v 0.437561 -0.058779 0.258156
v 0.466950 -0.095106 0.298607
v 0.532667 -0.058779 0.389058
v 0.503278 0.095105 0.348607
v 0.503278 -0.095106 0.348607
vn 0.4323 0.3056 0.8484
vn 0.2690 0.8055 0.5280
vn 0.0000 1.0000 -0.0000
vn -0.2690 0.8055 -0.5280
vn -0.4323 0.3056 -0.8484
vn -0.4323 -0.3056 -0.8484
vn -0.2690 -0.8055 -0.5280
vn -0.0000 -1.0000 0.0000
vn 0.2690 -0.8055 0.5280
vn 0.4323 -0.3056 0.8484
usemtl None
s off
f 9//1 1//1 10//1
f 11//2 2//2 1//2
f 2//3 12//3 3//3
f 12//4 4//4 3//4
f 13//5 5//5 4//5
f 14//6 15//6 5//6
f 16//7 6//7 15//7
f 17//8 7//8 6//8
f 7//9 18//9 8//9
f 18//10 10//10 8//10
f 9//1 11//1 1//1
f 11//2 19//2 2//2
f 2//3 19//3 12//3
f 12//4 13//4 4//4
f 13//5 14//5 5//5
f 14//6 16//6 15//6
f 16//7 17//7 6//7
f 17//8 20//8 7//8
f 7//9 20//9 18//9
f 18//10 9//10 10//10
o ball_original.012
v 0.543893 -0.000000 0.404509
v 0.532667 0.058778 0.389058
v 0.466950 0.095105 0.298607
v 0.437561 0.058778 0.258156
v 0.426335 -0.000000 0.242705
v 0.437561 -0.058779 0.258156
v 0.466950 -0.095106 0.298607
v 0.532667 -0.058779 0.389058
v 0.639058 0.058778 0.282667
v 0.503278 0.095105 0.348607
v 0.548607 0.095105 0.216951
v 0.508156 0.058778 0.187561
v 0.508156 -0.058779 0.187561
v 0.598607 -0.095106 0.253278
v 0.503278 -0.095106 0.348607
v 0.639058 -0.058779 0.282667
v 0.654508 -0.000000 0.293893
v 0.598607 0.095105 0.253278
v 0.492705 -0.000000 0.176336
v 0.548607 -0.095106 0.216951
vn 0.6733 0.3056 0.6733
vn 0.4190 0.8055 0.4190
vn 0.0000 1.0000 0.0000
vn -0.4190 0.8055 -0.4190
vn -0.6733 0.3056 -0.6733
vn -0.6733 -0.3056 -0.6733
vn -0.4190 -0.8055 -0.4190
vn -0.0000 -1.0000 -0.0000
vn 0.4190 -0.8055 0.4190
vn 0.6733 -0.3056 0.6733
usemtl None
s off
f 21//11 29//11 22//11
f 29//12 30//12 22//12
f 30//13 31//13 23//13
f 31//14 24//14 23//14
f 32//15 25//15 24//15
f 25//16 33//16 26//16
f 33//17 27//17 26//17
f 27//18 34//18 35//18
f 34//19 28//19 35//19
f 36//20 21//20 28//20
f 21//11 37//11 29//11
f 29//12 38//12 30//12
f 30//13 38//13 31//13
f 31//14 32//14 24//14
f 32//15 39//15 25//15
f 25//16 39//16 33//16
f 33//17 40//17 27//17
f 27//18 40//18 34//18
f 34//19 36//19 28//19
f 36//20 37//20 21//20
o ball_original.011
v 0.639058 0.058778 0.282667
v 0.548607 0.095105 0.216951
v 0.508156 0.058778 0.187561
v 0.508156 -0.058779 0.187561
v 0.598607 -0.095106 0.253278
v 0.639058 -0.058779 0.282667
v 0.725528 -0.000000 0.154509
v 0.654508 -0.000000 0.293893
v 0.659812 0.095105 0.133156
v 0.598607 0.095105 0.253278
v 0.601033 0.095105 0.114058
v 0.553481 0.058778 0.098607
v 0.492705 -0.000000 0.176336
v 0.535317 -0.000000 0.092705
v 0.553480 -0.058779 0.098607
v 0.548607 -0.095106 0.216951
v 0.601033 -0.095106 0.114058
v 0.659812 -0.095106 0.133156
v 0.707365 0.058778 0.148607
v 0.707365 -0.058779 0.148607
vn 0.8484 0.3056 0.4323
vn 0.5280 0.8055 0.2690
vn 0.0000 1.0000 -0.0000
vn -0.5280 0.8055 -0.2690
vn -0.8484 0.3056 -0.4323
vn -0.8484 -0.3056 -0.4323
vn -0.5280 -0.8055 -0.2690
vn -0.0000 -1.0000 0.0000
vn 0.5280 -0.8055 0.2690
vn 0.8484 -0.3056 0.4323
usemtl None
s off
f 47//21 41//21 48//21
f 41//22 49//22 50//22
f 50//23 51//23 42//23
f 51//24 43//24 42//24
f 52//25 53//25 43//25
f 54//26 44//26 53//26
f 55//27 56//27 44//27
f 57//28 45//28 56//28
f 58//29 46//29 45//29
f 46//30 47//30 48//30
f 47//21 59//21 41//21
f 41//22 59//22 49//22
f 50//23 49//23 51//23
f 51//24 52//24 43//24
f 52//25 54//25 53//25
f 54//26 55//26 44//26
f 55//27 57//27 56//27
f 57//28 58//28 45//28
f 58//29 60//29 46//29
f 46//30 60//30 47//30
o ball_original.010
v 0.725528 -0.000000 0.154509
v 0.659812 0.095105 0.133156
v 0.601033 0.095105 0.114058
v 0.553481 0.058778 0.098607
v 0.535317 -0.000000 0.092705
v 0.553480 -0.058779 0.098607
v 0.601033 -0.095106 0.114058
v 0.659812 -0.095106 0.133156
v 0.730902 0.058778 0.000000
v 0.707365 0.058778 0.148607
v 0.619098 0.095105 0.000000
v 0.550000 -0.000000 0.000000
v 0.569098 -0.058779 0.000000
v 0.619098 -0.095106 0.000000
v 0.730902 -0.058779 0.000000
v 0.707365 -0.058779 0.148607
v 0.750000 -0.000000 0.000000
v 0.680902 0.095105 0.000000
v 0.569098 0.058778 0.000000
v 0.680902 -0.095106 0.000000
vn 0.9404 0.3056 0.1490
vn 0.5853 0.8055 0.0927
vn 0.0000 1.0000 -0.0000
vn -0.5853 0.8055 -0.0927
vn -0.9404 0.3056 -0.1490
vn -0.9404 -0.3056 -0.1490
vn -0.5853 -0.8055 -0.0927
vn -0.0000 -1.0000 0.0000
vn 0.5853 -0.8055 0.0927
vn 0.9405 -0.3056 0.1490
vn -0.9404 0.3056 -0.1489
vn 0.9404 -0.3056 0.1490
usemtl None
s off
f 61//31 69//31 70//31
f 69//32 62//32 70//32
f 62//33 71//33 63//33
f 71//34 64//34 63//34
f 64//35 72//35 65//35
f 72//36 66//36 65//36
f 73//37 67//37 66//37
f 74//38 68//38 67//38
f 68//39 75//39 76//39
f 75//40 61//40 76//40
f 61//31 77//31 69//31
f 69//32 78//32 62//32
f 62//33 78//33 71//33
f 71//34 79//34 64//34
f 64//41 79//41 72//41
f 72//36 73//36 66//36
f 73//37 74//37 67//37
f 74//38 80//38 68//38
f 68//39 80//39 75//39
f 75//42 77//42 61//42
o ball_original.009
v 0.730902 0.058778 0.000000
v 0.619098 0.095105 0.000000
v 0.550000 -0.000000 0.000000
v 0.569098 -0.058779 0.000000
v 0.619098 -0.095106 0.000000
v 0.730902 -0.058779 0.000000
v 0.725528 -0.000000 -0.154509
v 0.750000 -0.000000 0.000000
v 0.707365 0.058778 -0.148607
v 0.680902 0.095105 0.000000
v 0.659812 0.095105 -0.133156
v 0.601033 0.095105 -0.114058
v 0.569098 0.058778 0.000000
v 0.553481 0.058778 -0.098607
v 0.535317 -0.000000 -0.092705
v 0.553480 -0.058779 -0.098607
v 0.601033 -0.095106 -0.114058
v 0.680902 -0.095106 0.000000
v 0.659812 -0.095106 -0.133156
v 0.707365 -0.058779 -0.148607
vn 0.9404 0.3056 -0.1490
vn 0.5853 0.8055 -0.0927
vn 0.0000 1.0000 0.0000
vn -0.5853 0.8055 0.0927
vn -0.9404 0.3056 0.1489
vn -0.9404 -0.3056 0.1490
vn -0.5853 -0.8055 0.0927
vn -0.0000 -1.0000 -0.0000
vn 0.5853 -0.8055 -0.0927
vn 0.9404 -0.3056 -0.1490
vn -0.9404 0.3056 0.1490
vn 0.9405 -0.3056 -0.1490
usemtl None
s off
f 87//43 81//43 88//43
f 89//44 90//44 81//44
f 91//45 82//45 90//45
f 92//46 93//46 82//46
f 94//47 83//47 93//47
f 95//48 84//48 83//48
f 96//49 85//49 84//49
f 97//50 98//50 85//50
f 99//51 86//51 98//51
f 86//52 87//52 88//52
f 87//43 89//43 81//43
f 89//44 91//44 90//44
f 91//45 92//45 82//45
f 92//46 94//46 93//46
f 94//53 95//53 83//53
f 95//48 96//48 84//48
f 96//49 97//49 85//49
f 97//50 99//50 98//50
f 99//51 100//51 86//51
f 86//54 100//54 87//54
o ball_original.008
v 0.725528 -0.000000 -0.154509
v 0.707365 0.058778 -0.148607
v 0.659812 0.095105 -0.133156
v 0.601033 0.095105 -0.114058
v 0.553481 0.058778 -0.098607
v 0.535317 -0.000000 -0.092705
v 0.553480 -0.058779 -0.098607
v 0.601033 -0.095106 -0.114058
v 0.659812 -0.095106 -0.133156
v 0.654509 -0.000000 -0.293892
v 0.598607 0.095105 -0.253277
v 0.548607 0.095105 -0.216950
v 0.508156 0.058778 -0.187561
v 0.492705 -0.000000 -0.176335
v 0.508156 -0.058779 -0.187561
v 0.548607 -0.095106 -0.216950
v 0.639058 -0.058779 -0.282667
v 0.707365 -0.058779 -0.148607
v 0.639058 0.058778 -0.282667
v 0.598607 -0.095106 -0.253277
vn 0.8484 0.3056 -0.4323
vn 0.5280 0.8055 -0.2690
vn 0.0000 1.0000 0.0000
vn -0.5280 0.8055 0.2690
vn -0.8484 0.3056 0.4323
vn -0.8484 -0.3056 0.4323
vn -0.5280 -0.8055 0.2690
vn -0.0000 -1.0000 -0.0000
vn 0.5280 -0.8055 -0.2690
vn 0.8484 -0.3056 -0.4323
usemtl None
s off
f 110//55 102//55 101//55
f 102//56 111//56 103//56
f 111//57 104//57 103//57
f 112//58 105//58 104//58
f 113//59 106//59 105//59
f 114//60 107//60 106//60
f 115//61 108//61 107//61
f 116//62 109//62 108//62
f 109//63 117//63 118//63
f 117//64 101//64 118//64
f 110//55 119//55 102//55
f 102//56 119//56 111//56
f 111//57 112//57 104//57
f 112//58 113//58 105//58
f 113//59 114//59 106//59
f 114//60 115//60 107//60
f 115//61 116//61 108//61
f 116//62 120//62 109//62
f 109//63 120//63 117//63
f 117//64 110//64 101//64
o ball_original.007
v 0.654509 -0.000000 -0.293892
v 0.598607 0.095105 -0.253277
v 0.548607 0.095105 -0.216950
v 0.508156 0.058778 -0.187561
v 0.492705 -0.000000 -0.176335
v 0.508156 -0.058779 -0.187561
v 0.548607 -0.095106 -0.216950
v 0.639058 -0.058779 -0.282667
v 0.532667 0.058778 -0.389058
v 0.639058 0.058778 -0.282667
v 0.503278 0.095105 -0.348607
v 0.466951 0.095105 -0.298607
v 0.426336 -0.000000 -0.242705
v 0.437561 -0.058779 -0.258156
v 0.466951 -0.095106 -0.298607
v 0.598607 -0.095106 -0.253277
v 0.503278 -0.095106 -0.348607
v 0.532667 -0.058779 -0.389058
v 0.543893 -0.000000 -0.404508
v 0.437561 0.058778 -0.258156
vn 0.6733 0.3056 -0.6733
vn 0.4190 0.8055 -0.4190
vn 0.0000 1.0000 0.0000
vn -0.4190 0.8055 0.4190
vn -0.6733 0.3056 0.6733
vn -0.6733 -0.3056 0.6733
vn -0.4190 -0.8055 0.4190
vn -0.0000 -1.0000 -0.0000
vn 0.4190 -0.8055 -0.4190
vn 0.6733 -0.3056 -0.6733
usemtl None
s off
f 121//65 129//65 130//65
f 130//66 131//66 122//66
f 131//67 123//67 122//67
f 132//68 124//68 123//68
f 124//69 133//69 125//69
f 133//70 126//70 125//70
f 134//71 127//71 126//71
f 135//72 136//72 127//72
f 137//73 128//73 136//73
f 138//74 121//74 128//74
f 121//65 139//65 129//65
f 130//66 129//66 131//66
f 131//67 132//67 123//67
f 132//68 140//68 124//68
f 124//69 140//69 133//69
f 133//70 134//70 126//70
f 134//71 135//71 127//71
f 135//72 137//72 136//72
f 137//73 138//73 128//73
f 138//74 139//74 121//74
o ball_original.006
v 0.532667 0.058778 -0.389058
v 0.503278 0.095105 -0.348607
v 0.466951 0.095105 -0.298607
v 0.426336 -0.000000 -0.242705
v 0.437561 -0.058779 -0.258156
v 0.466951 -0.095106 -0.298607
v 0.503278 -0.095106 -0.348607
v 0.532667 -0.058779 -0.389058
v 0.404509 -0.000000 -0.475528
v 0.543893 -0.000000 -0.404508
v 0.398607 0.058778 -0.457365
v 0.364058 0.095105 -0.351033
v 0.437561 0.058778 -0.258156
v 0.348607 0.058778 -0.303480
v 0.342705 -0.000000 -0.285317
v 0.348607 -0.058778 -0.303480
v 0.364058 -0.095106 -0.351033
v 0.398607 -0.058778 -0.457365
v 0.383156 0.095105 -0.409812
v 0.383156 -0.095106 -0.409812
vn 0.4323 0.3056 -0.8484
vn 0.2690 0.8055 -0.5280
vn 0.0000 1.0000 0.0000
vn -0.2690 0.8055 0.5280
vn -0.4323 0.3056 0.8484
vn -0.4323 -0.3056 0.8484
vn -0.2690 -0.8055 0.5280
vn -0.0000 -1.0000 -0.0000
vn 0.2690 -0.8055 -0.5280
vn 0.4323 -0.3056 -0.8484
usemtl None
s off
f 149//75 141//75 150//75
f 151//76 142//76 141//76
f 142//77 152//77 143//77
f 152//78 153//78 143//78
f 154//79 144//79 153//79
f 155//80 145//80 144//80
f 156//81 146//81 145//81
f 157//82 147//82 146//82
f 147//83 158//83 148//83
f 158//84 150//84 148//84
f 149//75 151//75 141//75
f 151//76 159//76 142//76
f 142//77 159//77 152//77
f 152//78 154//78 153//78
f 154//79 155//79 144//79
f 155//80 156//80 145//80
f 156//81 157//81 146//81
f 157//82 160//82 147//82
f 147//83 160//83 158//83
f 158//84 149//84 150//84
o ball_original.005_ball_original.000
v 0.404509 -0.000000 -0.475528
v 0.398607 0.058778 -0.457365
v 0.364058 0.095105 -0.351033
v 0.348607 0.058778 -0.303480
v 0.342705 -0.000000 -0.285317
v 0.348607 -0.058778 -0.303480
v 0.364058 -0.095106 -0.351033
v 0.398607 -0.058778 -0.457365
v 0.250000 -0.000000 -0.500000
v 0.250000 0.058778 -0.480902
v 0.383156 0.095105 -0.409812
v 0.250000 0.095105 -0.430902
v 0.250000 0.095105 -0.369098
v 0.250000 0.058778 -0.319098
v 0.250000 -0.058778 -0.319098
v 0.250000 -0.095105 -0.369098
v 0.383156 -0.095106 -0.409812
v 0.250000 -0.095105 -0.430902
v 0.250000 -0.058778 -0.480902
v 0.250000 -0.000000 -0.300000
vn 0.1490 0.3056 -0.9404
vn 0.0927 0.8055 -0.5853
vn 0.0000 1.0000 0.0000
vn -0.0927 0.8055 0.5853
vn -0.1490 0.3056 0.9404
vn -0.1490 -0.3056 0.9404
vn -0.0927 -0.8055 0.5853
vn -0.0000 -1.0000 -0.0000
vn 0.0927 -0.8055 -0.5853
vn 0.1490 -0.3056 -0.9404
usemtl None
s off
f 169//85 162//85 161//85
f 170//86 171//86 162//86
f 172//87 163//87 171//87
f 173//88 164//88 163//88
f 174//89 165//89 164//89
f 165//90 175//90 166//90
f 175//91 167//91 166//91
f 176//92 177//92 167//92
f 178//93 168//93 177//93
f 179//94 161//94 168//94
f 169//85 170//85 162//85
f 170//86 172//86 171//86
f 172//87 173//87 163//87
f 173//88 174//88 164//88
f 174//89 180//89 165//89
f 165//90 180//90 175//90
f 175//91 176//91 167//91
f 176//92 178//92 177//92
f 178//93 179//93 168//93
f 179//94 169//94 161//94
o ball_original.004_ball_original.005
v -0.064014 0.000000 -0.499946
v -0.069297 0.058778 -0.480902
v -0.067193 0.037288 -0.487884
v -0.052062 -0.080724 -0.349304
v -0.046173 -0.058778 -0.319098
v -0.065664 -0.021670 -0.492959
v -0.069297 -0.058778 -0.480902
v 0.250000 -0.000000 -0.500000
v 0.250000 0.058778 -0.480902
v 0.250000 0.095105 -0.430902
v 0.250000 0.095105 -0.369098
v 0.250000 0.058778 -0.319098
v 0.250000 -0.058778 -0.319098
v 0.250000 -0.095105 -0.369098
v 0.250000 -0.095105 -0.430902
v 0.250000 -0.058778 -0.480902
v 0.250000 -0.000000 -0.300000
v -0.063955 0.093341 -0.433330
v -0.058936 0.095105 -0.392715
v -0.067193 -0.072060 -0.462621
v -0.038286 0.000000 -0.300000
v -0.042906 -0.034433 -0.311188
v -0.060825 -0.095105 -0.407518
v -0.063955 -0.093341 -0.433330
v -0.065664 0.081712 -0.449336
v -0.055922 0.095105 -0.369098
v -0.050071 0.073304 -0.339091
v -0.055922 -0.095105 -0.369098
v -0.046173 0.058778 -0.319098
v -0.041573 0.024502 -0.307961
vn -0.0000 0.3090 -0.9511
vn -0.0053 0.9991 -0.0427
vn 0.0000 -0.8090 -0.5878
vn 0.0000 -0.8090 0.5878
vn -0.0000 -0.3090 0.9511
vn -0.0000 -1.0000 0.0000
vn -0.0002 0.3078 -0.9515
vn 0.0000 -0.3090 -0.9511
vn 0.0000 0.8090 -0.5878
vn 0.0000 0.8090 0.5878
vn 0.0000 0.3090 0.9511
vn 0.0000 1.0000 -0.0000
vn -0.0051 -0.9977 -0.0676
vn -0.0002 -0.3069 -0.9518
usemtl None
s off
f 183//95 189//95 188//95
f 198//96 199//96 190//96
f 200//97 196//97 195//97
f 184//98 194//98 193//98
f 201//99 202//99 197//99
f 203//100 195//100 194//100
f 202//99 193//99 197//99
f 204//97 200//97 195//97
f 181//101 183//101 188//101
f 185//98 184//98 193//98
f 186//102 188//102 196//102
f 182//103 205//103 189//103
f 206//104 207//104 191//104
f 187//102 186//102 196//102
f 208//100 203//100 194//100
f 205//103 190//103 189//103
f 209//105 210//105 192//105
f 201//105 192//105 210//105
f 206//106 190//106 199//106
f 209//104 191//104 207//104
f 183//95 182//95 189//95
f 200//97 187//97 196//97
f 184//98 208//98 194//98
f 203//107 204//107 195//107
f 202//99 185//99 193//99
f 186//108 181//108 188//108
f 205//103 198//103 190//103
f 201//105 197//105 192//105
f 206//106 191//106 190//106
f 209//104 192//104 191//104
o ball_original.003_ball_original.004
v -0.047323 0.000000 0.300000
v -0.048537 -0.023683 0.307695
v -0.086558 0.058778 0.480902
v 0.250000 -0.000000 0.500000
v 0.250000 0.058778 0.480902
v 0.250000 0.095105 0.430902
v 0.250000 0.095105 0.369098
v 0.250000 0.058778 0.319098
v 0.250000 -0.000000 0.300000
v 0.250000 -0.058778 0.319098
v 0.250000 -0.095105 0.369098
v 0.250000 -0.095105 0.430902
v 0.250000 -0.058778 0.480902
v -0.049125 0.035164 0.311425
v -0.064101 -0.095105 0.406362
v -0.071494 -0.095105 0.430902
v -0.086558 -0.058778 0.480902
v -0.076715 -0.082515 0.448231
v -0.050335 0.058778 0.319098
v -0.055149 0.080948 0.349613
v -0.090476 0.018753 0.493907
v -0.088417 -0.039783 0.487074
v -0.092312 0.000000 0.500000
v -0.081481 0.071022 0.464050
v -0.058222 0.095105 0.369098
v -0.064345 0.095105 0.407173
v -0.071494 0.095105 0.430902
v -0.050335 -0.058778 0.319098
v -0.053436 -0.073059 0.338754
v -0.058222 -0.095105 0.369098
v -0.061890 -0.095105 0.392350
vn 0.0000 0.3090 -0.9511
vn -0.0000 -1.0000 0.0000
vn -0.0000 -0.8090 0.5878
vn 0.0000 -0.3090 -0.9511
vn 0.0000 0.8090 -0.5878
vn 0.0000 0.3090 0.9511
vn 0.0000 -0.3090 0.9511
vn 0.0000 0.8090 0.5878
vn 0.0000 1.0000 0.0000
vn 0.0000 -0.8090 -0.5878
usemtl None
s off
f 211//109 224//109 219//109
f 225//110 222//110 226//110
f 227//111 228//111 223//111
f 212//112 219//112 220//112
f 229//113 230//113 218//113
f 213//114 231//114 215//114
f 232//115 223//115 214//115
f 233//115 232//115 214//115
f 234//116 215//116 216//116
f 226//111 223//111 228//111
f 235//117 236//117 217//117
f 237//116 234//116 216//116
f 238//112 212//112 220//112
f 224//109 218//109 219//109
f 238//118 221//118 239//118
f 240//110 222//110 241//110
f 236//117 216//117 217//117
f 240//118 239//118 221//118
f 231//114 214//114 215//114
f 230//113 217//113 218//113
f 225//110 241//110 222//110
f 212//112 211//112 219//112
f 232//115 227//115 223//115
f 234//116 213//116 215//116
f 226//111 222//111 223//111
f 224//109 229//109 218//109
f 238//118 220//118 221//118
f 240//110 221//110 222//110
f 236//117 237//117 216//117
f 231//114 233//114 214//114
f 230//113 235//113 217//113
o ball_original.002_ball_original.003
v 0.250000 -0.000000 0.500000
v 0.250000 0.058778 0.480902
v 0.250000 0.095105 0.430902
v 0.250000 0.095105 0.369098
v 0.250000 0.058778 0.319098
v 0.250000 -0.000000 0.300000
v 0.250000 -0.058778 0.319098
v 0.250000 -0.095105 0.369098
v 0.250000 -0.095105 0.430902
v 0.250000 -0.058778 0.480902
v 0.250000 -0.000000 -0.500000
v 0.250000 0.058778 -0.480902
v 0.250000 0.095105 -0.430902
v 0.250000 0.095105 -0.369098
v 0.250000 0.058778 -0.319098
v 0.250000 -0.058778 -0.319098
v 0.250000 -0.095105 -0.369098
v 0.250000 -0.095105 -0.430902
v 0.250000 -0.058778 -0.480902
v 0.250000 -0.000000 -0.300000
l 246 247
l 245 246
l 254 255
l 242 243
l 257 261
l 244 245
l 250 251
l 247 248
l 242 251
l 256 261
l 253 254
l 255 256
l 257 258
l 252 253
l 249 250
l 248 249
l 259 260
l 252 260
l 243 244
l 258 259
o ball_original.000_ball_original.002
v 0.250000 -0.000000 0.500000
v 0.398607 0.058778 0.457365
v 0.250000 0.058778 0.480902
v 0.250000 0.095105 0.430902
v 0.383156 0.095105 0.409812
v 0.250000 0.095105 0.369098
v 0.364058 0.095105 0.351033
v 0.250000 0.058778 0.319098
v 0.348607 0.058778 0.303481
v 0.250000 -0.000000 0.300000
v 0.342705 -0.000000 0.285317
v 0.250000 -0.058778 0.319098
v 0.364057 -0.095106 0.351033
v 0.250000 -0.095105 0.369098
v 0.383156 -0.095106 0.409812
v 0.250000 -0.095105 0.430902
v 0.250000 -0.058778 0.480902
v 0.398607 -0.058778 0.457365
v 0.404508 -0.000000 0.475528
v 0.348607 -0.058778 0.303481
vn 0.1490 0.3056 0.9404
vn 0.0927 0.8055 0.5853
vn 0.0000 1.0000 0.0000
vn -0.0927 0.8055 -0.5853
vn -0.1489 0.3056 -0.9404
vn -0.1490 -0.3056 -0.9404
vn -0.0927 -0.8055 -0.5853
vn -0.0000 -1.0000 0.0000
vn 0.0927 -0.8055 0.5853
vn 0.1490 -0.3056 0.9404
vn -0.1490 0.3056 -0.9404
vn -0.1489 -0.3056 -0.9404
usemtl None
s off
f 262//119 263//119 264//119
f 263//120 265//120 264//120
f 266//121 267//121 265//121
f 268//122 269//122 267//122
f 270//123 271//123 269//123
f 272//124 273//124 271//124
f 273//125 274//125 275//125
f 275//126 276//126 277//126
f 276//127 278//127 277//127
f 279//128 262//128 278//128
f 262//119 280//119 263//119
f 263//120 266//120 265//120
f 266//121 268//121 267//121
f 268//122 270//122 269//122
f 270//129 272//129 271//129
f 272//130 281//130 273//130
f 273//125 281//125 274//125
f 275//126 274//126 276//126
f 276//127 279//127 278//127
f 279//128 280//128 262//128
o ball_original.001
v -4.000000 0.000001 0.000000
v -3.935899 -0.295235 -0.406362
v -3.935899 -0.477704 0.155213
v -2.894439 -1.051450 -1.447215
v -3.315038 -0.885712 -1.219093
v -3.004601 -0.590475 -1.625459
v -3.935898 0.000001 0.502294
v -3.935900 0.477706 0.155213
v -3.935899 0.295237 -0.406362
v -2.502302 -0.885715 -1.721395
v -2.894440 -1.701298 0.552776
v -3.004604 -1.728369 0.059279
v -2.502303 -1.910844 0.310430
v -2.894431 0.000000 1.788852
v -3.004597 -0.477707 1.662101
v -2.502299 -0.295237 1.913252
v -2.894440 1.701298 0.552776
v -3.004604 1.433129 0.967943
v -2.502304 1.728376 0.872014
v -2.894439 1.051451 -1.447215
v -3.004604 1.363425 -1.063882
v -2.502304 1.363431 -1.374317
v -2.502304 -1.363431 -1.374317
v -2.502304 -1.728376 0.872014
v -2.502299 0.295237 1.913251
v -2.502303 1.910844 0.310430
v -2.502301 0.885715 -1.721395
v -1.105560 -1.701298 -0.552776
v -0.995396 -1.433129 -0.967943
v -0.684962 -1.433126 -0.465643
v -1.105561 -1.051451 1.447215
v -0.995396 -1.363425 1.063882
v -0.684962 -0.885713 1.219093
v -1.105561 1.051451 1.447215
v -0.995399 0.590475 1.625459
v -0.684962 0.885713 1.219093
v -1.105560 1.701298 -0.552776
v -0.995396 1.728369 -0.059279
v -0.684962 1.433126 -0.465643
v -1.105569 0.000000 -1.788852
v -0.995403 0.477707 -1.662101
v -0.684970 0.000000 -1.506883
v -0.298697 0.000000 -1.051460
v -0.211142 0.525726 -0.723601
v -0.064014 0.000000 -0.499946
v -0.552780 0.525728 -1.276387
v -0.069297 0.058778 -0.480902
v -0.067193 0.037288 -0.487884
v -0.298691 0.999991 -0.324911
v -0.064100 0.477705 -0.155213
v -0.552777 1.051456 -0.894418
v -0.948528 0.999994 -1.376379
v -0.995397 1.433129 -0.967943
v -0.064100 0.295236 0.406362
v 0.000000 0.000000 0.000000
v -0.211140 0.850639 0.276395
v -0.552775 1.376370 0.105579
v -0.298692 0.618023 0.850645
v -0.552776 1.175557 0.723607
v -0.948524 1.618023 0.525738
v -0.995396 1.363425 1.063882
v -0.047323 0.000000 0.300000
v -0.048537 -0.023683 0.307695
v -0.211142 0.000000 0.894420
v -0.552778 0.324914 1.341633
v -0.086558 0.058778 0.480902
v -0.298691 -0.618023 0.850645
v -0.064101 -0.295236 0.406362
v -0.552778 -0.324914 1.341633
v -0.948528 0.000000 1.701296
v -0.995399 -0.590475 1.625459
v -0.064100 -0.477705 -0.155213
v -0.211140 -0.850639 0.276395
v -0.552775 -1.175557 0.723607
v -0.298691 -0.999990 -0.324911
v -0.552775 -1.376370 0.105579
v -0.948524 -1.618024 0.525738
v -0.995396 -1.728369 -0.059279
v -0.052062 -0.080724 -0.349304
v -0.046173 -0.058778 -0.319098
v -0.211142 -0.525726 -0.723601
v -0.552777 -1.051456 -0.894418
v -0.065664 -0.021670 -0.492959
v -0.069297 -0.058778 -0.480902
v -0.552780 -0.525728 -1.276387
v -0.948528 -0.999994 -1.376379
v -0.995403 -0.477707 -1.662101
v -1.497701 0.295237 -1.913252
v -2.000000 0.618025 -1.902116
v -1.447208 0.850644 -1.723608
v -2.000000 1.175564 -1.618039
v -1.447205 1.376378 -1.341641
v -2.000000 1.618033 -1.175571
v -1.497696 1.728376 -0.872014
v -1.497697 1.910844 -0.310430
v -2.000000 2.000000 0.000000
v -1.447206 1.902110 0.276397
v -2.000001 1.902113 0.618033
v -1.447206 1.701298 0.894430
v -2.000000 1.618034 1.175571
v -1.497696 1.363431 1.374317
v -1.497698 0.885715 1.721395
v -2.000000 0.618025 1.902116
v -1.447208 0.324915 1.894426
v -1.999999 -0.000001 2.000000
v -1.447207 -0.324916 1.894426
v -2.000000 -0.618025 1.902116
v -1.497698 -0.885715 1.721395
v -1.497696 -1.363431 1.374317
v -2.000000 -1.618033 1.175571
v -1.447206 -1.701297 0.894432
v -2.000001 -1.902113 0.618034
v -1.447206 -1.902110 0.276399
v -2.000000 -2.000000 0.000000
v -1.497697 -1.910844 -0.310430
v -1.497696 -1.728376 -0.872014
v -2.000000 -1.618034 -1.175571
v -1.447208 -1.376380 -1.341641
v -2.000004 -1.175566 -1.618037
v -1.447211 -0.850646 -1.723608
v -2.000000 -0.618025 -1.902116
v -1.497701 -0.295237 -1.913251
v -2.000000 1.902113 -0.618034
v -2.552795 1.701297 -0.894431
v -2.552795 1.902110 -0.276398
v -3.051476 1.618024 -0.525738
v -3.004604 1.728369 0.059279
v -2.000000 1.175566 1.618037
v -2.552795 1.376381 1.341638
v -2.552793 0.850648 1.723606
v -3.051472 0.999994 1.376379
v -3.004598 0.477707 1.662101
v -2.000000 -1.175566 1.618037
v -2.552793 -0.850648 1.723606
v -2.552795 -1.376381 1.341638
v -3.051472 -0.999994 1.376379
v -3.004603 -1.433128 0.967943
v -2.000000 -1.902113 -0.618034
v -2.552795 -1.902110 -0.276398
v -2.552795 -1.701297 -0.894431
v -3.051476 -1.618023 -0.525738
v -3.004604 -1.363425 -1.063882
v -2.000000 0.000000 -2.000000
v -2.552792 -0.324915 -1.894426
v -2.552792 0.324915 -1.894426
v -3.051472 0.000000 -1.701296
v -3.004601 0.590475 -1.625459
v -3.315038 0.885714 -1.219093
v -3.701309 0.618024 -0.850645
v -3.447223 1.175559 -0.723607
v -3.788858 0.850644 -0.276394
v -3.447222 1.376374 -0.105578
v -3.701309 0.999992 0.324911
v -3.315038 1.433127 0.465643
v -3.447223 1.051455 0.894421
v -3.788858 0.525726 0.723602
v -3.447219 0.525727 1.276389
v -3.701303 0.000001 1.051460
v -3.315030 0.000001 1.506883
v -3.447219 -0.525727 1.276389
v -3.788857 -0.525728 0.723603
v -3.447221 -1.051456 0.894421
v -3.701309 -0.999990 0.324911
v -3.315038 -1.433125 0.465643
v -3.447221 0.324915 -1.341634
v -3.447220 -0.324914 -1.341635
v -3.788857 -0.000000 -0.894422
v -3.701308 -0.618022 -0.850645
v -3.447224 -1.376370 -0.105581
v -3.788858 -0.850640 -0.276397
v -3.447222 -1.175557 -0.723610
v -0.049125 0.035164 0.311425
v -0.063955 0.093341 -0.433330
v -0.058936 0.095105 -0.392715
v -0.067193 -0.072060 -0.462621
v -0.064101 -0.095105 0.406362
v -0.071494 -0.095105 0.430902
v -0.086558 -0.058778 0.480902
v -0.076715 -0.082515 0.448231
v -0.038286 0.000000 -0.300000
v -0.042906 -0.034433 -0.311188
v -0.050335 0.058778 0.319098
v -0.055149 0.080948 0.349613
v -0.090476 0.018753 0.493907
v -0.088417 -0.039783 0.487074
v -0.092312 0.000000 0.500000
v -0.060825 -0.095105 -0.407518
v -0.081481 0.071022 0.464050
v -0.063955 -0.093341 -0.433330
v -0.058222 0.095105 0.369098
v -0.064345 0.095105 0.407173
v -0.071494 0.095105 0.430902
v -0.065664 0.081712 -0.449336
v -0.050335 -0.058778 0.319098
v -0.055922 0.095105 -0.369098
v -0.050071 0.073304 -0.339091
v -0.053436 -0.073059 0.338754
v -0.055922 -0.095105 -0.369098
v -0.046173 0.058778 -0.319098
v -0.041573 0.024502 -0.307961
v -0.058222 -0.095105 0.369098
v -0.061890 -0.095105 0.392350
vn -0.9878 -0.1482 -0.0482
vn -0.5545 -0.4121 -0.7230
vn -0.9878 -0.0916 0.1261
vn -0.9878 0.0916 0.1261
vn -0.9878 0.1482 -0.0482
vn -0.3987 -0.4121 -0.8193
vn -0.3987 -0.9065 0.1387
vn -0.3987 -0.1482 0.9050
vn -0.3987 0.8149 0.4206
vn -0.3987 0.6519 -0.6451
vn -0.3024 -0.5603 -0.7711
vn -0.3024 -0.9065 0.2945
vn -0.3024 0.0000 0.9532
vn -0.3024 0.9065 0.2945
vn -0.3024 0.5603 -0.7711
vn 0.5545 -0.7583 -0.3427
vn 0.5545 -0.5603 0.6153
vn 0.5545 0.4121 0.7230
vn 0.5545 0.8149 -0.1685
vn 0.5545 0.0916 -0.8271
vn 0.9164 0.0906 -0.3899
vn 0.7594 0.0915 -0.6441
vn 0.9575 0.1696 -0.2334
vn 0.9158 0.3438 -0.2079
vn 0.8363 0.1830 -0.5168
vn 0.7947 0.3568 -0.4911
vn 0.8363 0.4350 -0.3338
vn 0.7594 0.5843 -0.2860
vn 0.6369 0.1696 -0.7520
vn 0.5955 0.3438 -0.7261
vn 0.6726 0.4350 -0.5987
vn 0.5955 0.5843 -0.5513
vn 0.6369 0.6628 -0.3936
vn 0.5545 0.7583 -0.3427
vn 0.9878 0.1482 0.0482
vn 0.9158 0.4003 -0.0339
vn 0.7594 0.6409 -0.1121
vn 0.9575 0.2743 0.0891
vn 0.9158 0.3039 0.2627
vn 0.8363 0.5481 0.0144
vn 0.7947 0.5773 0.1876
vn 0.8363 0.4519 0.3105
vn 0.7594 0.4526 0.4674
vn 0.6369 0.7676 -0.0711
vn 0.5955 0.7968 0.1026
vn 0.6726 0.7038 0.2287
vn 0.5955 0.7049 0.3854
vn 0.6369 0.5792 0.5087
vn 0.5545 0.5603 0.6153
vn 0.9878 -0.0000 0.1558
vn 0.9158 0.1560 0.3702
vn 0.7594 0.3046 0.5749
vn 0.9575 -0.0000 0.2885
vn 0.9158 -0.1559 0.3702
vn 0.8363 0.1557 0.5257
vn 0.7947 -0.0000 0.6071
vn 0.8363 -0.1557 0.5257
vn 0.7594 -0.3046 0.5749
vn 0.6369 0.3049 0.7081
vn 0.5955 0.1487 0.7895
vn 0.6726 -0.0000 0.7400
vn 0.5955 -0.1487 0.7895
vn 0.6369 -0.3049 0.7081
vn 0.5545 -0.4121 0.7230
vn 0.9878 -0.1482 0.0482
vn 0.9158 -0.3039 0.2627
vn 0.7594 -0.4526 0.4674
vn 0.9575 -0.2743 0.0891
vn 0.9158 -0.4003 -0.0339
vn 0.8363 -0.4519 0.3105
vn 0.7947 -0.5773 0.1876
vn 0.8363 -0.5481 0.0144
vn 0.7594 -0.6409 -0.1121
vn 0.6369 -0.5792 0.5087
vn 0.5955 -0.7049 0.3854
vn 0.6726 -0.7038 0.2287
vn 0.5955 -0.7968 0.1026
vn 0.6369 -0.7676 -0.0711
vn 0.5545 -0.8149 -0.1685
vn 0.9878 -0.0916 -0.1260
vn 0.9158 -0.3438 -0.2079
vn 0.7594 -0.5843 -0.2860
vn 0.9575 -0.1696 -0.2334
vn 0.9164 -0.0906 -0.3899
vn 0.8363 -0.4350 -0.3338
vn 0.7947 -0.3568 -0.4911
vn 0.8363 -0.1830 -0.5168
vn 0.7594 -0.0915 -0.6441
vn 0.6369 -0.6628 -0.3936
vn 0.5955 -0.5843 -0.5513
vn 0.6726 -0.4350 -0.5987
vn 0.5955 -0.3438 -0.7261
vn 0.6369 -0.1696 -0.7520
vn 0.5545 -0.0916 -0.8271
vn 0.3987 0.1482 -0.9050
vn 0.1745 0.3039 -0.9366
vn -0.0784 0.4526 -0.8883
vn 0.3485 0.2744 -0.8963
vn 0.4399 0.4003 -0.8039
vn 0.0962 0.4519 -0.8869
vn 0.1876 0.5773 -0.7947
vn 0.3611 0.5481 -0.7544
vn 0.4399 0.6409 -0.6291
vn -0.1702 0.5792 -0.7972
vn -0.0784 0.7049 -0.7049
vn 0.0962 0.7038 -0.7038
vn 0.1745 0.7968 -0.5785
vn 0.3485 0.7676 -0.5379
vn 0.3987 0.8149 -0.4206
vn 0.3987 0.9065 -0.1387
vn 0.1745 0.9846 -0.0004
vn -0.0784 0.9846 0.1560
vn 0.3485 0.9372 -0.0160
vn 0.4399 0.8883 0.1323
vn 0.0962 0.9831 0.1557
vn 0.1876 0.9342 0.3035
vn 0.3611 0.8869 0.2882
vn 0.4399 0.7964 0.4151
vn -0.1702 0.9372 0.3045
vn -0.0784 0.8883 0.4526
vn 0.0962 0.8869 0.4519
vn 0.1745 0.7964 0.5791
vn 0.3485 0.7488 0.5638
vn 0.3987 0.6519 0.6451
vn 0.3987 0.4121 0.8193
vn 0.1745 0.3046 0.9363
vn -0.0784 0.1560 0.9846
vn 0.3485 0.3049 0.8864
vn 0.4399 0.1487 0.8857
vn 0.0962 0.1557 0.9831
vn 0.1876 0.0000 0.9822
vn 0.3611 0.0000 0.9325
vn 0.4399 -0.1487 0.8857
vn -0.1702 0.0000 0.9854
vn -0.0784 -0.1560 0.9846
vn 0.0962 -0.1557 0.9831
vn 0.1745 -0.3046 0.9363
vn 0.3485 -0.3049 0.8864
vn 0.3987 -0.4121 0.8193
vn 0.3987 -0.6519 0.6451
vn 0.1745 -0.7964 0.5791
vn -0.0784 -0.8883 0.4526
vn 0.3485 -0.7488 0.5638
vn 0.4399 -0.7964 0.4151
vn 0.0962 -0.8869 0.4519
vn 0.1876 -0.9342 0.3035
vn 0.3611 -0.8869 0.2882
vn 0.4399 -0.8883 0.1323
vn -0.1702 -0.9372 0.3045
vn -0.0784 -0.9846 0.1560
vn 0.0962 -0.9831 0.1557
vn 0.1745 -0.9846 -0.0004
vn 0.3485 -0.9372 -0.0160
vn 0.3987 -0.9065 -0.1387
vn 0.3987 -0.8149 -0.4206
vn 0.1745 -0.7968 -0.5785
vn -0.0784 -0.7049 -0.7049
vn 0.3485 -0.7676 -0.5379
vn 0.4399 -0.6409 -0.6291
vn 0.0962 -0.7038 -0.7038
vn 0.1876 -0.5773 -0.7947
vn 0.3611 -0.5481 -0.7544
vn 0.4399 -0.4003 -0.8039
vn -0.1702 -0.5792 -0.7972
vn -0.0784 -0.4526 -0.8883
vn 0.0962 -0.4519 -0.8869
vn 0.1745 -0.3039 -0.9366
vn 0.3485 -0.2744 -0.8963
vn 0.3987 -0.1482 -0.9050
vn 0.3024 0.9065 -0.2945
vn 0.0784 0.8883 -0.4526
vn -0.1745 0.7964 -0.5791
vn 0.1702 0.9372 -0.3045
vn 0.0784 0.9846 -0.1560
vn -0.0962 0.8869 -0.4519
vn -0.1876 0.9342 -0.3035
vn -0.0962 0.9831 -0.1557
vn -0.1745 0.9846 0.0004
vn -0.3485 0.7488 -0.5638
vn -0.4399 0.7964 -0.4151
vn -0.3611 0.8869 -0.2882
vn -0.4399 0.8883 -0.1323
vn -0.3485 0.9372 0.0160
vn -0.3987 0.9065 0.1387
vn 0.3024 0.5603 0.7711
vn 0.0784 0.7049 0.7049
vn -0.1745 0.7968 0.5785
vn 0.1702 0.5792 0.7972
vn 0.0784 0.4526 0.8883
vn -0.0962 0.7038 0.7038
vn -0.1876 0.5774 0.7947
vn -0.0962 0.4519 0.8869
vn -0.1745 0.3039 0.9366
vn -0.3485 0.7676 0.5379
vn -0.4399 0.6409 0.6291
vn -0.3611 0.5481 0.7544
vn -0.4399 0.4003 0.8039
vn -0.3485 0.2744 0.8963
vn -0.3987 0.1482 0.9050
vn 0.3024 -0.5603 0.7711
vn 0.0784 -0.4526 0.8883
vn -0.1745 -0.3039 0.9366
vn 0.1702 -0.5792 0.7972
vn 0.0784 -0.7049 0.7049
vn -0.0962 -0.4519 0.8869
vn -0.1876 -0.5774 0.7947
vn -0.0962 -0.7038 0.7038
vn -0.1745 -0.7968 0.5785
vn -0.3485 -0.2744 0.8963
vn -0.4399 -0.4003 0.8039
vn -0.3611 -0.5481 0.7544
vn -0.4399 -0.6409 0.6291
vn -0.3485 -0.7676 0.5379
vn -0.3987 -0.8149 0.4206
vn 0.3024 -0.9065 -0.2945
vn 0.0784 -0.9846 -0.1560
vn -0.1745 -0.9846 0.0004
vn 0.1702 -0.9372 -0.3045
vn 0.0784 -0.8883 -0.4526
vn -0.0962 -0.9831 -0.1557
vn -0.1876 -0.9342 -0.3035
vn -0.0962 -0.8869 -0.4519
vn -0.1745 -0.7964 -0.5791
vn -0.3485 -0.9372 0.0160
vn -0.4399 -0.8883 -0.1323
vn -0.3611 -0.8869 -0.2882
vn -0.4399 -0.7964 -0.4151
vn -0.3485 -0.7488 -0.5638
vn -0.3987 -0.6519 -0.6451
vn 0.3024 -0.0000 -0.9532
vn 0.0784 -0.1560 -0.9846
vn -0.1745 -0.3046 -0.9363
vn 0.1702 -0.0000 -0.9854
vn 0.0784 0.1560 -0.9846
vn -0.0962 -0.1557 -0.9831
vn -0.1876 0.0000 -0.9822
vn -0.0962 0.1557 -0.9831
vn -0.1745 0.3046 -0.9363
vn -0.3485 -0.3049 -0.8864
vn -0.4399 -0.1487 -0.8857
vn -0.3611 0.0000 -0.9325
vn -0.4399 0.1487 -0.8857
vn -0.3485 0.3049 -0.8864
vn -0.3987 0.4121 -0.8193
vn -0.5545 0.5603 -0.6153
vn -0.7594 0.4526 -0.4674
vn -0.9158 0.3039 -0.2627
vn -0.6369 0.5792 -0.5087
vn -0.5955 0.7049 -0.3854
vn -0.8363 0.4519 -0.3105
vn -0.7947 0.5773 -0.1876
vn -0.6726 0.7038 -0.2287
vn -0.5955 0.7968 -0.1026
vn -0.9575 0.2744 -0.0891
vn -0.9158 0.4003 0.0339
vn -0.8363 0.5481 -0.0144
vn -0.7594 0.6409 0.1121
vn -0.6369 0.7676 0.0711
vn -0.5545 0.8149 0.1685
vn -0.5545 0.7583 0.3427
vn -0.7594 0.5843 0.2860
vn -0.9158 0.3438 0.2079
vn -0.6369 0.6628 0.3936
vn -0.5955 0.5843 0.5513
vn -0.8363 0.4350 0.3338
vn -0.7947 0.3568 0.4911
vn -0.6726 0.4350 0.5987
vn -0.5955 0.3438 0.7261
vn -0.9575 0.1696 0.2334
vn -0.9158 0.0914 0.3912
vn -0.8363 0.1830 0.5168
vn -0.7594 0.0915 0.6441
vn -0.6369 0.1696 0.7520
vn -0.5545 0.0916 0.8271
vn -0.5545 -0.0916 0.8271
vn -0.7594 -0.0915 0.6441
vn -0.9158 -0.0914 0.3912
vn -0.6369 -0.1696 0.7520
vn -0.5955 -0.3438 0.7261
vn -0.8363 -0.1830 0.5168
vn -0.7947 -0.3568 0.4911
vn -0.6726 -0.4350 0.5987
vn -0.5955 -0.5843 0.5513
vn -0.9575 -0.1696 0.2334
vn -0.9158 -0.3438 0.2079
vn -0.8363 -0.4350 0.3338
vn -0.7594 -0.5843 0.2860
vn -0.6369 -0.6628 0.3936
vn -0.5545 -0.7583 0.3427
vn -0.5545 0.4121 -0.7230
vn -0.5955 0.1487 -0.7895
vn -0.5955 -0.1487 -0.7895
vn -0.6369 0.3049 -0.7081
vn -0.7594 0.3046 -0.5749
vn -0.6726 0.0000 -0.7400
vn -0.7947 -0.0000 -0.6071
vn -0.8363 0.1557 -0.5257
vn -0.9158 0.1559 -0.3702
vn -0.6369 -0.3049 -0.7081
vn -0.7594 -0.3046 -0.5749
vn -0.8363 -0.1557 -0.5257
vn -0.9158 -0.1560 -0.3702
vn -0.9575 0.0000 -0.2885
vn -0.9878 0.0000 -0.1558
vn -0.5545 -0.8149 0.1685
vn -0.7594 -0.6409 0.1121
vn -0.9158 -0.4003 0.0339
vn -0.6369 -0.7676 0.0711
vn -0.5955 -0.7968 -0.1026
vn -0.8363 -0.5481 -0.0144
vn -0.7947 -0.5773 -0.1876
vn -0.6726 -0.7038 -0.2287
vn -0.5955 -0.7049 -0.3854
vn -0.9575 -0.2744 -0.0891
vn -0.9158 -0.3039 -0.2627
vn -0.8363 -0.4519 -0.3105
vn -0.7594 -0.4526 -0.4674
vn -0.6369 -0.5792 -0.5087
vn -0.5545 -0.5603 -0.6153
vn 0.9878 0.0916 -0.1261
vn 0.9551 0.1617 -0.2482
vn 0.9575 0.1693 -0.2334
vn 0.9581 0.1731 -0.2280
vn 0.9873 -0.0006 0.1588
vn 0.9878 -0.0000 0.1559
vn 0.9878 -0.0916 -0.1261
vn 0.9575 -0.1693 -0.2334
vn 0.9530 -0.1563 -0.2596
vn 0.9579 -0.1714 -0.2304
vn 0.9878 0.0916 -0.1260
usemtl None
s off
f 282//131 283//131 284//131
f 285//132 286//132 287//132
f 282//133 284//133 288//133
f 282//134 288//134 289//134
f 282//135 289//135 290//135
f 285//136 287//136 291//136
f 292//137 293//137 294//137
f 295//138 296//138 297//138
f 298//139 299//139 300//139
f 301//140 302//140 303//140
f 285//141 291//141 304//141
f 292//142 294//142 305//142
f 295//143 297//143 306//143
f 298//144 300//144 307//144
f 301//145 303//145 308//145
f 309//146 310//146 311//146
f 312//147 313//147 314//147
f 315//148 316//148 317//148
f 318//149 319//149 320//149
f 321//150 322//150 323//150
f 324//151 325//151 326//151
f 323//152 327//152 324//152
f 328//153 329//153 325//153
f 325//154 330//154 331//154
f 324//155 327//155 325//155
f 327//156 332//156 325//156
f 325//157 332//157 330//157
f 332//158 320//158 330//158
f 323//159 322//159 327//159
f 322//160 333//160 327//160
f 327//161 333//161 332//161
f 333//162 334//162 332//162
f 332//163 334//163 320//163
f 334//164 318//164 320//164
f 331//165 335//165 336//165
f 330//166 337//166 331//166
f 320//167 338//167 330//167
f 331//168 337//168 335//168
f 337//169 339//169 335//169
f 330//170 338//170 337//170
f 338//171 340//171 337//171
f 337//172 340//172 339//172
f 340//173 317//173 339//173
f 320//174 319//174 338//174
f 319//175 341//175 338//175
f 338//176 341//176 340//176
f 341//177 342//177 340//177
f 340//178 342//178 317//178
f 342//179 315//179 317//179
f 343//180 344//180 336//180
f 339//181 345//181 335//181
f 317//182 346//182 339//182
f 335//183 345//183 347//183
f 345//184 348//184 349//184
f 339//185 346//185 345//185
f 346//186 350//186 345//186
f 345//187 350//187 348//187
f 350//188 314//188 348//188
f 317//189 316//189 346//189
f 316//190 351//190 346//190
f 346//191 351//191 350//191
f 351//192 352//192 350//192
f 350//193 352//193 314//193
f 352//194 312//194 314//194
f 349//195 353//195 336//195
f 348//196 354//196 349//196
f 314//197 355//197 348//197
f 349//198 354//198 353//198
f 354//199 356//199 353//199
f 348//200 355//200 354//200
f 355//201 357//201 354//201
f 354//202 357//202 356//202
f 357//203 311//203 356//203
f 314//204 313//204 355//204
f 313//205 358//205 355//205
f 355//206 358//206 357//206
f 358//207 359//207 357//207
f 357//208 359//208 311//208
f 359//209 309//209 311//209
f 353//210 360//210 361//210
f 356//211 362//211 353//211
f 311//212 363//212 356//212
f 362//213 364//213 365//213
f 362//214 324//214 326//214
f 356//215 363//215 362//215
f 363//216 366//216 362//216
f 362//217 366//217 324//217
f 366//218 323//218 324//218
f 311//219 310//219 363//219
f 310//220 367//220 363//220
f 363//221 367//221 366//221
f 367//222 368//222 366//222
f 366//223 368//223 323//223
f 368//224 321//224 323//224
f 369//225 322//225 321//225
f 370//226 371//226 369//226
f 308//227 372//227 370//227
f 369//228 371//228 322//228
f 371//229 333//229 322//229
f 370//230 372//230 371//230
f 372//231 373//231 371//231
f 371//232 373//232 333//232
f 373//233 334//233 333//233
f 308//234 303//234 372//234
f 303//235 374//235 372//235
f 372//236 374//236 373//236
f 374//237 375//237 373//237
f 373//238 375//238 334//238
f 375//239 318//239 334//239
f 376//240 319//240 318//240
f 377//241 378//241 376//241
f 307//242 379//242 377//242
f 376//243 378//243 319//243
f 378//244 341//244 319//244
f 377//245 379//245 378//245
f 379//246 380//246 378//246
f 378//247 380//247 341//247
f 380//248 342//248 341//248
f 307//249 300//249 379//249
f 300//250 381//250 379//250
f 379//251 381//251 380//251
f 381//252 382//252 380//252
f 380//253 382//253 342//253
f 382//254 315//254 342//254
f 383//255 316//255 315//255
f 384//256 385//256 383//256
f 306//257 386//257 384//257
f 383//258 385//258 316//258
f 385//259 351//259 316//259
f 384//260 386//260 385//260
f 386//261 387//261 385//261
f 385//262 387//262 351//262
f 387//263 352//263 351//263
f 306//264 297//264 386//264
f 297//265 388//265 386//265
f 386//266 388//266 387//266
f 388//267 389//267 387//267
f 387//268 389//268 352//268
f 389//269 312//269 352//269
f 390//270 313//270 312//270
f 391//271 392//271 390//271
f 305//272 393//272 391//272
f 390//273 392//273 313//273
f 392//274 358//274 313//274
f 391//275 393//275 392//275
f 393//276 394//276 392//276
f 392//277 394//277 358//277
f 394//278 359//278 358//278
f 305//279 294//279 393//279
f 294//280 395//280 393//280
f 393//281 395//281 394//281
f 395//282 396//282 394//282
f 394//283 396//283 359//283
f 396//284 309//284 359//284
f 397//285 310//285 309//285
f 398//286 399//286 397//286
f 304//287 400//287 398//287
f 397//288 399//288 310//288
f 399//289 367//289 310//289
f 398//290 400//290 399//290
f 400//291 401//291 399//291
f 399//292 401//292 367//292
f 401//293 368//293 367//293
f 304//294 291//294 400//294
f 291//295 402//295 400//295
f 400//296 402//296 401//296
f 402//297 403//297 401//297
f 401//298 403//298 368//298
f 403//299 321//299 368//299
f 375//300 376//300 318//300
f 374//301 404//301 375//301
f 303//302 405//302 374//302
f 375//303 404//303 376//303
f 404//304 377//304 376//304
f 374//305 405//305 404//305
f 405//306 406//306 404//306
f 404//307 406//307 377//307
f 406//308 307//308 377//308
f 303//309 302//309 405//309
f 302//310 407//310 405//310
f 405//311 407//311 406//311
f 407//312 408//312 406//312
f 406//313 408//313 307//313
f 408//314 298//314 307//314
f 382//315 383//315 315//315
f 381//316 409//316 382//316
f 300//317 410//317 381//317
f 382//318 409//318 383//318
f 409//319 384//319 383//319
f 381//320 410//320 409//320
f 410//321 411//321 409//321
f 409//322 411//322 384//322
f 411//323 306//323 384//323
f 300//324 299//324 410//324
f 299//325 412//325 410//325
f 410//326 412//326 411//326
f 412//327 413//327 411//327
f 411//328 413//328 306//328
f 413//329 295//329 306//329
f 389//330 390//330 312//330
f 388//331 414//331 389//331
f 297//332 415//332 388//332
f 389//333 414//333 390//333
f 414//334 391//334 390//334
f 388//335 415//335 414//335
f 415//336 416//336 414//336
f 414//337 416//337 391//337
f 416//338 305//338 391//338
f 297//339 296//339 415//339
f 296//340 417//340 415//340
f 415//341 417//341 416//341
f 417//342 418//342 416//342
f 416//343 418//343 305//343
f 418//344 292//344 305//344
f 396//345 397//345 309//345
f 395//346 419//346 396//346
f 294//347 420//347 395//347
f 396//348 419//348 397//348
f 419//349 398//349 397//349
f 395//350 420//350 419//350
f 420//351 421//351 419//351
f 419//352 421//352 398//352
f 421//353 304//353 398//353
f 294//354 293//354 420//354
f 293//355 422//355 420//355
f 420//356 422//356 421//356
f 422//357 423//357 421//357
f 421//358 423//358 304//358
f 423//359 285//359 304//359
f 403//360 369//360 321//360
f 402//361 424//361 403//361
f 291//362 425//362 402//362
f 403//363 424//363 369//363
f 424//364 370//364 369//364
f 402//365 425//365 424//365
f 425//366 426//366 424//366
f 424//367 426//367 370//367
f 426//368 308//368 370//368
f 291//369 287//369 425//369
f 287//370 427//370 425//370
f 425//371 427//371 426//371
f 427//372 428//372 426//372
f 426//373 428//373 308//373
f 428//374 301//374 308//374
f 429//375 302//375 301//375
f 430//376 431//376 429//376
f 290//377 432//377 430//377
f 429//378 431//378 302//378
f 431//379 407//379 302//379
f 430//380 432//380 431//380
f 432//381 433//381 431//381
f 431//382 433//382 407//382
f 433//383 408//383 407//383
f 290//384 289//384 432//384
f 289//385 434//385 432//385
f 432//386 434//386 433//386
f 434//387 435//387 433//387
f 433//388 435//388 408//388
f 435//389 298//389 408//389
f 435//390 299//390 298//390
f 434//391 436//391 435//391
f 289//392 437//392 434//392
f 435//393 436//393 299//393
f 436//394 412//394 299//394
f 434//395 437//395 436//395
f 437//396 438//396 436//396
f 436//397 438//397 412//397
f 438//398 413//398 412//398
f 289//399 288//399 437//399
f 288//400 439//400 437//400
f 437//401 439//401 438//401
f 439//402 440//402 438//402
f 438//403 440//403 413//403
f 440//404 295//404 413//404
f 440//405 296//405 295//405
f 439//406 441//406 440//406
f 288//407 442//407 439//407
f 440//408 441//408 296//408
f 441//409 417//409 296//409
f 439//410 442//410 441//410
f 442//411 443//411 441//411
f 441//412 443//412 417//412
f 443//413 418//413 417//413
f 288//414 284//414 442//414
f 284//415 444//415 442//415
f 442//416 444//416 443//416
f 444//417 445//417 443//417
f 443//418 445//418 418//418
f 445//419 292//419 418//419
f 428//420 429//420 301//420
f 427//421 446//421 428//421
f 287//422 447//422 427//422
f 428//423 446//423 429//423
f 446//424 430//424 429//424
f 427//425 447//425 446//425
f 447//426 448//426 446//426
f 446//427 448//427 430//427
f 448//428 290//428 430//428
f 287//429 286//429 447//429
f 286//430 449//430 447//430
f 447//431 449//431 448//431
f 449//432 283//432 448//432
f 448//433 283//433 290//433
f 283//434 282//434 290//434
f 445//435 293//435 292//435
f 444//436 450//436 445//436
f 284//437 451//437 444//437
f 445//438 450//438 293//438
f 450//439 422//439 293//439
f 444//440 451//440 450//440
f 451//441 452//441 450//441
f 450//442 452//442 422//442
f 452//443 423//443 422//443
f 284//444 283//444 451//444
f 283//445 449//445 451//445
f 451//446 449//446 452//446
f 449//447 286//447 452//447
f 452//448 286//448 423//448
f 286//449 285//449 423//449
f 476//450 455//450 331//450
f 329//451 326//451 325//451
f 325//452 331//452 454//452
f 454//453 474//453 325//453
f 474//153 328//153 325//153
f 335//454 472//454 471//454
f 471//180 464//180 335//180
f 464//180 463//180 335//180
f 483//455 457//455 349//455
f 475//180 478//180 349//180
f 478//180 482//180 349//180
f 482//180 483//180 349//180
f 336//180 335//180 463//180
f 336//180 463//180 453//180
f 349//180 336//180 475//180
f 336//180 453//180 343//180
f 344//180 475//180 336//180
f 349//183 457//183 458//183
f 458//183 460//183 349//183
f 460//183 459//183 349//183
f 473//183 472//183 335//183
f 347//183 469//183 335//183
f 469//183 473//183 335//183
f 467//183 465//183 345//183
f 465//183 347//183 345//183
f 349//183 459//183 345//183
f 459//183 466//183 345//183
f 466//183 467//183 345//183
f 353//210 470//210 468//210
f 353//456 468//456 479//456
f 461//456 336//456 462//456
f 336//456 353//456 361//456
f 361//456 462//456 336//456
f 353//456 479//456 360//456
f 470//457 353//457 362//457
f 362//458 326//458 364//458
f 365//213 456//213 362//213
f 456//459 470//459 362//459
f 336//450 461//450 481//450
f 480//460 477//460 331//460
f 477//450 476//450 331//450
f 336//450 481//450 480//450
f 455//460 454//460 331//460
f 336//450 480//450 331//450
