# Blender v2.79 (sub 0) OBJ File: 'ball_split.blend'
# www.blender.org
mtllib ball_split2_yup_minxfwd.mtl
o ball_original.004_ball_original.005
v 0.499946 -0.064014 -0.000000
v 0.480902 -0.069297 -0.058778
v 0.487884 -0.067193 -0.037288
v 0.349304 -0.052062 0.080724
v 0.319098 -0.046173 0.058778
v 0.492959 -0.065664 0.021670
v 0.480902 -0.069297 0.058778
v 0.500000 0.250000 0.000000
v 0.480902 0.250000 -0.058778
v 0.430902 0.250000 -0.095105
v 0.369098 0.250000 -0.095105
v 0.319098 0.250000 -0.058778
v 0.319098 0.250000 0.058778
v 0.369098 0.250000 0.095105
v 0.430902 0.250000 0.095105
v 0.480902 0.250000 0.058778
v 0.300000 0.250000 0.000000
v 0.433330 -0.063955 -0.093341
v 0.392715 -0.058936 -0.095105
v 0.462621 -0.067193 0.072060
v 0.300000 -0.038286 -0.000000
v 0.311188 -0.042906 0.034433
v 0.407518 -0.060825 0.095105
v 0.433330 -0.063955 0.093341
v 0.449336 -0.065664 -0.081712
v 0.369098 -0.055922 -0.095105
v 0.339091 -0.050071 -0.073304
v 0.369098 -0.055922 0.095105
v 0.319098 -0.046173 -0.058778
v 0.307961 -0.041573 -0.024502
vn 0.9511 -0.0000 -0.3090
vn 0.0427 -0.0053 -0.9991
vn 0.5878 0.0000 0.8090
vn -0.5878 0.0000 0.8090
vn -0.9511 -0.0000 0.3090
vn 0.0000 -0.0000 1.0000
vn 0.9515 -0.0002 -0.3078
vn 0.9511 0.0000 0.3090
vn 0.5878 0.0000 -0.8090
vn -0.5878 0.0000 -0.8090
vn -0.9511 0.0000 -0.3090
vn 0.0000 0.0000 -1.0000
vn 0.0676 -0.0051 0.9977
vn 0.9518 -0.0002 0.3069
usemtl None
s off
f 3//1 9//1 8//1
f 18//2 19//2 10//2
f 20//3 16//3 15//3
f 4//4 14//4 13//4
f 21//5 22//5 17//5
f 23//6 15//6 14//6
f 22//5 13//5 17//5
f 24//3 20//3 15//3
f 1//7 3//7 8//7
f 5//4 4//4 13//4
f 6//8 8//8 16//8
f 2//9 25//9 9//9
f 26//10 27//10 11//10
f 7//8 6//8 16//8
f 28//6 23//6 14//6
f 25//9 10//9 9//9
f 29//11 30//11 12//11
f 21//11 12//11 30//11
f 26//12 10//12 19//12
f 29//10 11//10 27//10
f 3//1 2//1 9//1
f 20//3 7//3 16//3
f 4//4 28//4 14//4
f 23//13 24//13 15//13
f 22//5 5//5 13//5
f 6//14 1//14 8//14
f 25//9 18//9 10//9
f 21//11 17//11 12//11
f 26//12 11//12 10//12
f 29//10 12//10 11//10
o ball_original.003_ball_original.004
v -0.300000 -0.047323 -0.000000
v -0.307695 -0.048537 0.023683
v -0.480902 -0.086558 -0.058778
v -0.500000 0.250000 0.000000
v -0.480902 0.250000 -0.058778
v -0.430902 0.250000 -0.095105
v -0.369098 0.250000 -0.095105
v -0.319098 0.250000 -0.058778
v -0.300000 0.250000 0.000000
v -0.319098 0.250000 0.058778
v -0.369098 0.250000 0.095105
v -0.430902 0.250000 0.095105
v -0.480902 0.250000 0.058778
v -0.311425 -0.049125 -0.035164
v -0.406362 -0.064101 0.095105
v -0.430902 -0.071494 0.095105
v -0.480902 -0.086558 0.058778
v -0.448231 -0.076715 0.082515
v -0.319098 -0.050335 -0.058778
v -0.349613 -0.055149 -0.080948
v -0.493907 -0.090476 -0.018753
v -0.487074 -0.088417 0.039783
v -0.500000 -0.092312 -0.000000
v -0.464050 -0.081481 -0.071022
v -0.369098 -0.058222 -0.095105
v -0.407173 -0.064345 -0.095105
v -0.430902 -0.071494 -0.095105
v -0.319098 -0.050335 0.058778
v -0.338754 -0.053436 0.073059
v -0.369098 -0.058222 0.095105
v -0.392350 -0.061890 0.095105
vn 0.9511 0.0000 -0.3090
vn -0.0000 -0.0000 1.0000
vn -0.5878 -0.0000 0.8090
vn 0.9511 0.0000 0.3090
vn 0.5878 0.0000 -0.8090
vn -0.9511 0.0000 -0.3090
vn -0.9511 0.0000 0.3090
vn -0.5878 0.0000 -0.8090
vn -0.0000 0.0000 -1.0000
vn 0.5878 0.0000 0.8090
usemtl None
s off
f 31//15 44//15 39//15
f 45//16 42//16 46//16
f 47//17 48//17 43//17
f 32//18 39//18 40//18
f 49//19 50//19 38//19
f 33//20 51//20 35//20
f 52//21 43//21 34//21
f 53//21 52//21 34//21
f 54//22 35//22 36//22
f 46//17 43//17 48//17
f 55//23 56//23 37//23
f 57//22 54//22 36//22
f 58//18 32//18 40//18
f 44//15 38//15 39//15
f 58//24 41//24 59//24
f 60//16 42//16 61//16
f 56//23 36//23 37//23
f 60//24 59//24 41//24
f 51//20 34//20 35//20
f 50//19 37//19 38//19
f 45//16 61//16 42//16
f 32//18 31//18 39//18
f 52//21 47//21 43//21
f 54//22 33//22 35//22
f 46//17 42//17 43//17
f 44//15 49//15 38//15
f 58//24 40//24 41//24
f 60//16 41//16 42//16
f 56//23 57//23 36//23
f 51//20 53//20 34//20
f 50//19 55//19 37//19
o ball_original.002_ball_original.003
v -0.500000 0.250000 0.000000
v -0.480902 0.250000 -0.058778
v -0.430902 0.250000 -0.095105
v -0.369098 0.250000 -0.095105
v -0.319098 0.250000 -0.058778
v -0.300000 0.250000 0.000000
v -0.319098 0.250000 0.058778
v -0.369098 0.250000 0.095105
v -0.430902 0.250000 0.095105
v -0.480902 0.250000 0.058778
v 0.500000 0.250000 0.000000
v 0.480902 0.250000 -0.058778
v 0.430902 0.250000 -0.095105
v 0.369098 0.250000 -0.095105
v 0.319098 0.250000 -0.058778
v 0.319098 0.250000 0.058778
v 0.369098 0.250000 0.095105
v 0.430902 0.250000 0.095105
v 0.480902 0.250000 0.058778
v 0.300000 0.250000 0.000000
l 66 67
l 65 66
l 74 75
l 62 63
l 77 81
l 64 65
l 70 71
l 67 68
l 62 71
l 76 81
l 73 74
l 75 76
l 77 78
l 72 73
l 69 70
l 68 69
l 79 80
l 72 80
l 63 64
l 78 79
o ball_original.000_ball_original.002
v -0.500000 0.250000 0.000000
v -0.457365 0.398607 -0.058778
v -0.480902 0.250000 -0.058778
v -0.430902 0.250000 -0.095105
v -0.409812 0.383156 -0.095105
v -0.369098 0.250000 -0.095105
v -0.351033 0.364058 -0.095105
v -0.319098 0.250000 -0.058778
v -0.303481 0.348607 -0.058778
v -0.300000 0.250000 0.000000
v -0.285317 0.342705 0.000000
v -0.319098 0.250000 0.058778
v -0.351033 0.364057 0.095106
v -0.369098 0.250000 0.095105
v -0.409812 0.383156 0.095106
v -0.430902 0.250000 0.095105
v -0.480902 0.250000 0.058778
v -0.457365 0.398607 0.058778
v -0.404509 0.543893 0.000000
v -0.475528 0.404508 0.000000
v -0.389058 0.532667 -0.058778
v -0.298607 0.466950 -0.095105
v -0.258156 0.437561 -0.058778
v -0.242705 0.426335 0.000000
v -0.303481 0.348607 0.058778
v -0.258156 0.437561 0.058779
v -0.298607 0.466950 0.095106
v -0.389058 0.532667 0.058779
v -0.282667 0.639058 -0.058778
v -0.348607 0.503278 -0.095105
v -0.216951 0.548607 -0.095105
v -0.187561 0.508156 -0.058778
v -0.187561 0.508156 0.058779
v -0.253278 0.598607 0.095106
v -0.348607 0.503278 0.095106
v -0.282667 0.639058 0.058779
v -0.154509 0.725528 0.000000
v -0.293893 0.654508 0.000000
v -0.133156 0.659812 -0.095105
v -0.253278 0.598607 -0.095105
v -0.114058 0.601033 -0.095105
v -0.098607 0.553481 -0.058778
v -0.176336 0.492705 0.000000
v -0.092705 0.535317 0.000000
v -0.098607 0.553480 0.058779
v -0.216951 0.548607 0.095106
v -0.114058 0.601033 0.095106
v -0.133156 0.659812 0.095106
v 0.000000 0.730902 -0.058778
v -0.148607 0.707365 -0.058778
v 0.000000 0.619098 -0.095105
v 0.000000 0.550000 0.000000
v 0.000000 0.569098 0.058779
v 0.000000 0.619098 0.095106
v 0.000000 0.730902 0.058779
v -0.148607 0.707365 0.058779
v 0.154509 0.725528 0.000000
v 0.000000 0.750000 0.000000
v 0.148607 0.707365 -0.058778
v 0.000000 0.680902 -0.095105
v 0.133156 0.659812 -0.095105
v 0.114058 0.601033 -0.095105
v 0.000000 0.569098 -0.058778
v 0.098607 0.553481 -0.058778
v 0.092705 0.535317 0.000000
v 0.098607 0.553480 0.058779
v 0.114058 0.601033 0.095106
v 0.000000 0.680902 0.095106
v 0.133156 0.659812 0.095106
v 0.293892 0.654509 0.000000
v 0.253277 0.598607 -0.095105
v 0.216950 0.548607 -0.095105
v 0.187561 0.508156 -0.058778
v 0.176335 0.492705 0.000000
v 0.187561 0.508156 0.058779
v 0.216950 0.548607 0.095106
v 0.282667 0.639058 0.058779
v 0.148607 0.707365 0.058779
v 0.389058 0.532667 -0.058778
v 0.282667 0.639058 -0.058778
v 0.348607 0.503278 -0.095105
v 0.298607 0.466951 -0.095105
v 0.242705 0.426336 0.000000
v 0.258156 0.437561 0.058779
v 0.298607 0.466951 0.095106
v 0.253277 0.598607 0.095106
v 0.348607 0.503278 0.095106
v 0.389058 0.532667 0.058779
v 0.475528 0.404509 0.000000
v 0.404508 0.543893 0.000000
v 0.457365 0.398607 -0.058778
v 0.351033 0.364058 -0.095105
v 0.258156 0.437561 -0.058778
v 0.303480 0.348607 -0.058778
v 0.285317 0.342705 0.000000
v 0.303480 0.348607 0.058778
v 0.351033 0.364058 0.095106
v 0.457365 0.398607 0.058778
v 0.500000 0.250000 0.000000
v 0.480902 0.250000 -0.058778
v 0.409812 0.383156 -0.095105
v 0.430902 0.250000 -0.095105
v 0.369098 0.250000 -0.095105
v 0.319098 0.250000 -0.058778
v 0.319098 0.250000 0.058778
v 0.369098 0.250000 0.095105
v 0.409812 0.383156 0.095106
v 0.430902 0.250000 0.095105
v 0.480902 0.250000 0.058778
v 0.300000 0.250000 0.000000
vn -0.9404 0.1490 -0.3056
vn -0.5853 0.0927 -0.8055
vn 0.0000 0.0000 -1.0000
vn 0.5853 -0.0927 -0.8055
vn 0.9404 -0.1489 -0.3056
vn 0.9404 -0.1490 0.3056
vn 0.5853 -0.0927 0.8055
vn 0.0000 -0.0000 1.0000
vn -0.5853 0.0927 0.8055
vn -0.9404 0.1490 0.3056
vn -0.8484 0.4323 -0.3056
vn -0.5280 0.2690 -0.8055
vn 0.5280 -0.2690 -0.8055
vn 0.8484 -0.4323 -0.3056
vn 0.8484 -0.4323 0.3056
vn 0.5280 -0.2690 0.8055
vn -0.5280 0.2690 0.8055
vn -0.8484 0.4323 0.3056
vn -0.6733 0.6733 -0.3056
vn -0.4190 0.4190 -0.8055
vn 0.4190 -0.4190 -0.8055
vn 0.6733 -0.6733 -0.3056
vn 0.6733 -0.6733 0.3056
vn 0.4190 -0.4190 0.8055
vn -0.4190 0.4190 0.8055
vn -0.6733 0.6733 0.3056
vn -0.4323 0.8484 -0.3056
vn -0.2690 0.5280 -0.8055
vn 0.2690 -0.5280 -0.8055
vn 0.4323 -0.8484 -0.3056
vn 0.4323 -0.8484 0.3056
vn 0.2690 -0.5280 0.8055
vn -0.2690 0.5280 0.8055
vn -0.4323 0.8484 0.3056
vn -0.1490 0.9404 -0.3056
vn -0.0927 0.5853 -0.8055
vn 0.0927 -0.5853 -0.8055
vn 0.1490 -0.9404 -0.3056
vn 0.1490 -0.9404 0.3056
vn 0.0927 -0.5853 0.8055
vn -0.0927 0.5853 0.8055
vn -0.1490 0.9405 0.3056
vn 0.1490 0.9404 -0.3056
vn 0.0927 0.5853 -0.8055
vn -0.0927 -0.5853 -0.8055
vn -0.1489 -0.9404 -0.3056
vn -0.1490 -0.9404 0.3056
vn -0.0927 -0.5853 0.8055
vn 0.0927 0.5853 0.8055
vn 0.1490 0.9404 0.3056
vn 0.4323 0.8484 -0.3056
vn 0.2690 0.5280 -0.8055
vn -0.2690 -0.5280 -0.8055
vn -0.4323 -0.8484 -0.3056
vn -0.4323 -0.8484 0.3056
vn -0.2690 -0.5280 0.8055
vn 0.2690 0.5280 0.8055
vn 0.4323 0.8484 0.3056
vn 0.6733 0.6733 -0.3056
vn 0.4190 0.4190 -0.8055
vn -0.4190 -0.4190 -0.8055
vn -0.6733 -0.6733 -0.3056
vn -0.6733 -0.6733 0.3056
vn -0.4190 -0.4190 0.8055
vn 0.4190 0.4190 0.8055
vn 0.6733 0.6733 0.3056
vn 0.8484 0.4323 -0.3056
vn 0.5280 0.2690 -0.8055
vn -0.5280 -0.2690 -0.8055
vn -0.8484 -0.4323 -0.3056
vn -0.8484 -0.4323 0.3056
vn -0.5280 -0.2690 0.8055
vn 0.5280 0.2690 0.8055
vn 0.8484 0.4323 0.3056
vn 0.9404 0.1490 -0.3056
vn 0.5853 0.0927 -0.8055
vn -0.5853 -0.0927 -0.8055
vn -0.9404 -0.1490 -0.3056
vn -0.9404 -0.1490 0.3056
vn -0.5853 -0.0927 0.8055
vn 0.5853 0.0927 0.8055
vn 0.9404 0.1490 0.3056
vn 0.9404 -0.1490 -0.3056
vn 0.9404 -0.1489 0.3056
vn 0.1489 -0.9404 -0.3056
vn -0.1490 0.9404 0.3056
vn -0.1490 -0.9404 -0.3056
vn 0.1490 0.9405 0.3056
usemtl None
s off
f 82//25 83//25 84//25
f 83//26 85//26 84//26
f 86//27 87//27 85//27
f 88//28 89//28 87//28
f 90//29 91//29 89//29
f 92//30 93//30 91//30
f 93//31 94//31 95//31
f 95//32 96//32 97//32
f 96//33 98//33 97//33
f 99//34 82//34 98//34
f 100//35 83//35 101//35
f 102//36 86//36 83//36
f 86//27 103//27 88//27
f 103//37 90//37 88//37
f 104//38 92//38 90//38
f 105//39 106//39 92//39
f 107//40 94//40 106//40
f 108//32 96//32 94//32
f 96//41 109//41 99//41
f 109//42 101//42 99//42
f 100//43 110//43 102//43
f 110//44 111//44 102//44
f 111//27 112//27 103//27
f 112//45 104//45 103//45
f 113//46 105//46 104//46
f 105//47 114//47 107//47
f 114//48 108//48 107//48
f 108//32 115//32 116//32
f 115//49 109//49 116//49
f 117//50 100//50 109//50
f 118//51 110//51 119//51
f 110//52 120//52 121//52
f 121//27 122//27 112//27
f 122//53 113//53 112//53
f 123//54 124//54 113//54
f 125//55 114//55 124//55
f 126//56 127//56 114//56
f 128//32 115//32 127//32
f 129//57 117//57 115//57
f 117//58 118//58 119//58
f 118//59 130//59 131//59
f 130//60 120//60 131//60
f 120//27 132//27 122//27
f 132//61 123//61 122//61
f 123//62 133//62 125//62
f 133//63 126//63 125//63
f 134//64 128//64 126//64
f 135//32 129//32 128//32
f 129//65 136//65 137//65
f 136//66 118//66 137//66
f 138//67 130//67 139//67
f 140//68 141//68 130//68
f 142//27 132//27 141//27
f 143//69 144//69 132//69
f 145//70 133//70 144//70
f 146//71 134//71 133//71
f 147//72 135//72 134//72
f 148//32 149//32 135//32
f 150//73 136//73 149//73
f 136//74 138//74 139//74
f 151//75 140//75 138//75
f 140//76 152//76 142//76
f 152//27 143//27 142//27
f 153//77 145//77 143//77
f 154//78 146//78 145//78
f 155//79 147//79 146//79
f 156//80 148//80 147//80
f 157//32 150//32 148//32
f 150//81 158//81 159//81
f 158//82 138//82 159//82
f 151//83 160//83 161//83
f 161//84 162//84 152//84
f 162//27 153//27 152//27
f 163//85 154//85 153//85
f 154//86 164//86 155//86
f 164//87 156//87 155//87
f 165//88 157//88 156//88
f 166//32 167//32 157//32
f 168//89 158//89 167//89
f 169//90 151//90 158//90
f 170//91 160//91 171//91
f 172//92 162//92 160//92
f 162//27 173//27 163//27
f 173//93 174//93 163//93
f 175//94 164//94 174//94
f 176//95 165//95 164//95
f 177//96 166//96 165//96
f 178//32 168//32 166//32
f 168//97 179//97 169//97
f 179//98 171//98 169//98
f 180//99 172//99 170//99
f 181//100 182//100 172//100
f 183//27 173//27 182//27
f 184//101 175//101 173//101
f 185//102 176//102 175//102
f 176//103 186//103 177//103
f 186//104 178//104 177//104
f 187//32 188//32 178//32
f 189//105 179//105 188//105
f 190//106 170//106 179//106
f 82//25 101//25 83//25
f 83//26 86//26 85//26
f 86//27 88//27 87//27
f 88//28 90//28 89//28
f 90//107 92//107 91//107
f 92//108 106//108 93//108
f 93//31 106//31 94//31
f 95//32 94//32 96//32
f 96//33 99//33 98//33
f 99//34 101//34 82//34
f 100//35 102//35 83//35
f 102//36 111//36 86//36
f 86//27 111//27 103//27
f 103//37 104//37 90//37
f 104//38 105//38 92//38
f 105//39 107//39 106//39
f 107//40 108//40 94//40
f 108//32 116//32 96//32
f 96//41 116//41 109//41
f 109//42 100//42 101//42
f 100//43 119//43 110//43
f 110//44 121//44 111//44
f 111//27 121//27 112//27
f 112//45 113//45 104//45
f 113//46 124//46 105//46
f 105//47 124//47 114//47
f 114//48 127//48 108//48
f 108//32 127//32 115//32
f 115//49 117//49 109//49
f 117//50 119//50 100//50
f 118//51 131//51 110//51
f 110//52 131//52 120//52
f 121//27 120//27 122//27
f 122//53 123//53 113//53
f 123//54 125//54 124//54
f 125//55 126//55 114//55
f 126//56 128//56 127//56
f 128//32 129//32 115//32
f 129//57 137//57 117//57
f 117//58 137//58 118//58
f 118//59 139//59 130//59
f 130//60 141//60 120//60
f 120//27 141//27 132//27
f 132//61 144//61 123//61
f 123//109 144//109 133//109
f 133//63 134//63 126//63
f 134//64 135//64 128//64
f 135//32 149//32 129//32
f 129//65 149//65 136//65
f 136//110 139//110 118//110
f 138//67 140//67 130//67
f 140//68 142//68 141//68
f 142//27 143//27 132//27
f 143//69 145//69 144//69
f 145//111 146//111 133//111
f 146//71 147//71 134//71
f 147//72 148//72 135//72
f 148//32 150//32 149//32
f 150//73 159//73 136//73
f 136//112 159//112 138//112
f 151//75 161//75 140//75
f 140//76 161//76 152//76
f 152//27 153//27 143//27
f 153//77 154//77 145//77
f 154//78 155//78 146//78
f 155//79 156//79 147//79
f 156//80 157//80 148//80
f 157//32 167//32 150//32
f 150//81 167//81 158//81
f 158//82 151//82 138//82
f 151//83 171//83 160//83
f 161//84 160//84 162//84
f 162//27 163//27 153//27
f 163//85 174//85 154//85
f 154//86 174//86 164//86
f 164//87 165//87 156//87
f 165//88 166//88 157//88
f 166//32 168//32 167//32
f 168//89 169//89 158//89
f 169//90 171//90 151//90
f 170//91 172//91 160//91
f 172//92 182//92 162//92
f 162//27 182//27 173//27
f 173//93 175//93 174//93
f 175//94 176//94 164//94
f 176//95 177//95 165//95
f 177//96 178//96 166//96
f 178//32 188//32 168//32
f 168//97 188//97 179//97
f 179//98 170//98 171//98
f 180//99 181//99 172//99
f 181//100 183//100 182//100
f 183//27 184//27 173//27
f 184//101 185//101 175//101
f 185//102 191//102 176//102
f 176//103 191//103 186//103
f 186//104 187//104 178//104
f 187//32 189//32 188//32
f 189//105 190//105 179//105
f 190//106 180//106 170//106
o ball_original.001
v 0.000000 -4.000000 -0.000001
v 0.406362 -3.935899 0.295235
v -0.155213 -3.935899 0.477704
v 1.447215 -2.894439 1.051450
v 1.219093 -3.315038 0.885712
v 1.625459 -3.004601 0.590475
v -0.502294 -3.935898 -0.000001
v -0.155213 -3.935900 -0.477706
v 0.406362 -3.935899 -0.295237
v 1.721395 -2.502302 0.885715
v -0.552776 -2.894440 1.701298
v -0.059279 -3.004604 1.728369
v -0.310430 -2.502303 1.910844
v -1.788852 -2.894431 -0.000000
v -1.662101 -3.004597 0.477707
v -1.913252 -2.502299 0.295237
v -0.552776 -2.894440 -1.701298
v -0.967943 -3.004604 -1.433129
v -0.872014 -2.502304 -1.728376
v 1.447215 -2.894439 -1.051451
v 1.063882 -3.004604 -1.363425
v 1.374317 -2.502304 -1.363431
v 1.374317 -2.502304 1.363431
v -0.872014 -2.502304 1.728376
v -1.913251 -2.502299 -0.295237
v -0.310430 -2.502303 -1.910844
v 1.721395 -2.502301 -0.885715
v 0.552776 -1.105560 1.701298
v 0.967943 -0.995396 1.433129
v 0.465643 -0.684962 1.433126
v -1.447215 -1.105561 1.051451
v -1.063882 -0.995396 1.363425
v -1.219093 -0.684962 0.885713
v -1.447215 -1.105561 -1.051451
v -1.625459 -0.995399 -0.590475
v -1.219093 -0.684962 -0.885713
v 0.552776 -1.105560 -1.701298
v 0.059279 -0.995396 -1.728369
v 0.465643 -0.684962 -1.433126
v 1.788852 -1.105569 -0.000000
v 1.662101 -0.995403 -0.477707
v 1.506883 -0.684970 -0.000000
v 1.051460 -0.298697 -0.000000
v 0.723601 -0.211142 -0.525726
v 0.499946 -0.064014 -0.000000
v 1.276387 -0.552780 -0.525728
v 0.480902 -0.069297 -0.058778
v 0.487884 -0.067193 -0.037288
v 0.324911 -0.298691 -0.999991
v 0.155213 -0.064100 -0.477705
v 0.894418 -0.552777 -1.051456
v 1.376379 -0.948528 -0.999994
v 0.967943 -0.995397 -1.433129
v -0.406362 -0.064100 -0.295236
v 0.000000 0.000000 0.000000
v -0.276395 -0.211140 -0.850639
v -0.105579 -0.552775 -1.376370
v -0.850645 -0.298692 -0.618023
v -0.723607 -0.552776 -1.175557
v -0.525738 -0.948524 -1.618023
v -1.063882 -0.995396 -1.363425
v -0.300000 -0.047323 -0.000000
v -0.307695 -0.048537 0.023683
v -0.894420 -0.211142 -0.000000
v -1.341633 -0.552778 -0.324914
v -0.480902 -0.086558 -0.058778
v -0.850645 -0.298691 0.618023
v -0.406362 -0.064101 0.295236
v -1.341633 -0.552778 0.324914
v -1.701296 -0.948528 -0.000000
v -1.625459 -0.995399 0.590475
v 0.155213 -0.064100 0.477705
v -0.276395 -0.211140 0.850639
v -0.723607 -0.552775 1.175557
v 0.324911 -0.298691 0.999990
v -0.105579 -0.552775 1.376370
v -0.525738 -0.948524 1.618024
v 0.059279 -0.995396 1.728369
v 0.349304 -0.052062 0.080724
v 0.319098 -0.046173 0.058778
v 0.723601 -0.211142 0.525726
v 0.894418 -0.552777 1.051456
v 0.492959 -0.065664 0.021670
v 0.480902 -0.069297 0.058778
v 1.276387 -0.552780 0.525728
v 1.376379 -0.948528 0.999994
v 1.662101 -0.995403 0.477707
v 1.913252 -1.497701 -0.295237
v 1.902116 -2.000000 -0.618025
v 1.723608 -1.447208 -0.850644
v 1.618039 -2.000000 -1.175564
v 1.341641 -1.447205 -1.376378
v 1.175571 -2.000000 -1.618033
v 0.872014 -1.497696 -1.728376
v 0.310430 -1.497697 -1.910844
v 0.000000 -2.000000 -2.000000
v -0.276397 -1.447206 -1.902110
v -0.618033 -2.000001 -1.902113
v -0.894430 -1.447206 -1.701298
v -1.175571 -2.000000 -1.618034
v -1.374317 -1.497696 -1.363431
v -1.721395 -1.497698 -0.885715
v -1.902116 -2.000000 -0.618025
v -1.894426 -1.447208 -0.324915
v -2.000000 -1.999999 0.000001
v -1.894426 -1.447207 0.324916
v -1.902116 -2.000000 0.618025
v -1.721395 -1.497698 0.885715
v -1.374317 -1.497696 1.363431
v -1.175571 -2.000000 1.618033
v -0.894432 -1.447206 1.701297
v -0.618034 -2.000001 1.902113
v -0.276399 -1.447206 1.902110
v 0.000000 -2.000000 2.000000
v 0.310430 -1.497697 1.910844
v 0.872014 -1.497696 1.728376
v 1.175571 -2.000000 1.618034
v 1.341641 -1.447208 1.376380
v 1.618037 -2.000004 1.175566
v 1.723608 -1.447211 0.850646
v 1.902116 -2.000000 0.618025
v 1.913251 -1.497701 0.295237
v 0.618034 -2.000000 -1.902113
v 0.894431 -2.552795 -1.701297
v 0.276398 -2.552795 -1.902110
v 0.525738 -3.051476 -1.618024
v -0.059279 -3.004604 -1.728369
v -1.618037 -2.000000 -1.175566
v -1.341638 -2.552795 -1.376381
v -1.723606 -2.552793 -0.850648
v -1.376379 -3.051472 -0.999994
v -1.662101 -3.004598 -0.477707
v -1.618037 -2.000000 1.175566
v -1.723606 -2.552793 0.850648
v -1.341638 -2.552795 1.376381
v -1.376379 -3.051472 0.999994
v -0.967943 -3.004603 1.433128
v 0.618034 -2.000000 1.902113
v 0.276398 -2.552795 1.902110
v 0.894431 -2.552795 1.701297
v 0.525738 -3.051476 1.618023
v 1.063882 -3.004604 1.363425
v 2.000000 -2.000000 -0.000000
v 1.894426 -2.552792 0.324915
v 1.894426 -2.552792 -0.324915
v 1.701296 -3.051472 -0.000000
v 1.625459 -3.004601 -0.590475
v 1.219093 -3.315038 -0.885714
v 0.850645 -3.701309 -0.618024
v 0.723607 -3.447223 -1.175559
v 0.276394 -3.788858 -0.850644
v 0.105578 -3.447222 -1.376374
v -0.324911 -3.701309 -0.999992
v -0.465643 -3.315038 -1.433127
v -0.894421 -3.447223 -1.051455
v -0.723602 -3.788858 -0.525726
v -1.276389 -3.447219 -0.525727
v -1.051460 -3.701303 -0.000001
v -1.506883 -3.315030 -0.000001
v -1.276389 -3.447219 0.525727
v -0.723603 -3.788857 0.525728
v -0.894421 -3.447221 1.051456
v -0.324911 -3.701309 0.999990
v -0.465643 -3.315038 1.433125
v 1.341634 -3.447221 -0.324915
v 1.341635 -3.447220 0.324914
v 0.894422 -3.788857 0.000000
v 0.850645 -3.701308 0.618022
v 0.105581 -3.447224 1.376370
v 0.276397 -3.788858 0.850640
v 0.723610 -3.447222 1.175557
v -0.311425 -0.049125 -0.035164
v 0.433330 -0.063955 -0.093341
v 0.392715 -0.058936 -0.095105
v 0.462621 -0.067193 0.072060
v -0.406362 -0.064101 0.095105
v -0.430902 -0.071494 0.095105
v -0.480902 -0.086558 0.058778
v -0.448231 -0.076715 0.082515
v 0.300000 -0.038286 -0.000000
v 0.311188 -0.042906 0.034433
v -0.319098 -0.050335 -0.058778
v -0.349613 -0.055149 -0.080948
v -0.493907 -0.090476 -0.018753
v -0.487074 -0.088417 0.039783
v -0.500000 -0.092312 -0.000000
v 0.407518 -0.060825 0.095105
v -0.464050 -0.081481 -0.071022
v 0.433330 -0.063955 0.093341
v -0.369098 -0.058222 -0.095105
v -0.407173 -0.064345 -0.095105
v -0.430902 -0.071494 -0.095105
v 0.449336 -0.065664 -0.081712
v -0.319098 -0.050335 0.058778
v 0.369098 -0.055922 -0.095105
v 0.339091 -0.050071 -0.073304
v -0.338754 -0.053436 0.073059
v 0.369098 -0.055922 0.095105
v 0.319098 -0.046173 -0.058778
v 0.307961 -0.041573 -0.024502
v -0.369098 -0.058222 0.095105
v -0.392350 -0.061890 0.095105
vn 0.0482 -0.9878 0.1482
vn 0.7230 -0.5545 0.4121
vn -0.1261 -0.9878 0.0916
vn -0.1261 -0.9878 -0.0916
vn 0.0482 -0.9878 -0.1482
vn 0.8193 -0.3987 0.4121
vn -0.1387 -0.3987 0.9065
vn -0.9050 -0.3987 0.1482
vn -0.4206 -0.3987 -0.8149
vn 0.6451 -0.3987 -0.6519
vn 0.7711 -0.3024 0.5603
vn -0.2945 -0.3024 0.9065
vn -0.9532 -0.3024 -0.0000
vn -0.2945 -0.3024 -0.9065
vn 0.7711 -0.3024 -0.5603
vn 0.3427 0.5545 0.7583
vn -0.6153 0.5545 0.5603
vn -0.7230 0.5545 -0.4121
vn 0.1685 0.5545 -0.8149
vn 0.8271 0.5545 -0.0916
vn 0.3899 0.9164 -0.0906
vn 0.6441 0.7594 -0.0915
vn 0.2334 0.9575 -0.1696
vn 0.2079 0.9158 -0.3438
vn 0.5168 0.8363 -0.1830
vn 0.4911 0.7947 -0.3568
vn 0.3338 0.8363 -0.4350
vn 0.2860 0.7594 -0.5843
vn 0.7520 0.6369 -0.1696
vn 0.7261 0.5955 -0.3438
vn 0.5987 0.6726 -0.4350
vn 0.5513 0.5955 -0.5843
vn 0.3936 0.6369 -0.6628
vn 0.3427 0.5545 -0.7583
vn -0.0482 0.9878 -0.1482
vn 0.0339 0.9158 -0.4003
vn 0.1121 0.7594 -0.6409
vn -0.0891 0.9575 -0.2743
vn -0.2627 0.9158 -0.3039
vn -0.0144 0.8363 -0.5481
vn -0.1876 0.7947 -0.5773
vn -0.3105 0.8363 -0.4519
vn -0.4674 0.7594 -0.4526
vn 0.0711 0.6369 -0.7676
vn -0.1026 0.5955 -0.7968
vn -0.2287 0.6726 -0.7038
vn -0.3854 0.5955 -0.7049
vn -0.5087 0.6369 -0.5792
vn -0.6153 0.5545 -0.5603
vn -0.1558 0.9878 0.0000
vn -0.3702 0.9158 -0.1560
vn -0.5749 0.7594 -0.3046
vn -0.2885 0.9575 0.0000
vn -0.3702 0.9158 0.1559
vn -0.5257 0.8363 -0.1557
vn -0.6071 0.7947 0.0000
vn -0.5257 0.8363 0.1557
vn -0.5749 0.7594 0.3046
vn -0.7081 0.6369 -0.3049
vn -0.7895 0.5955 -0.1487
vn -0.7400 0.6726 0.0000
vn -0.7895 0.5955 0.1487
vn -0.7081 0.6369 0.3049
vn -0.7230 0.5545 0.4121
vn -0.0482 0.9878 0.1482
vn -0.2627 0.9158 0.3039
vn -0.4674 0.7594 0.4526
vn -0.0891 0.9575 0.2743
vn 0.0339 0.9158 0.4003
vn -0.3105 0.8363 0.4519
vn -0.1876 0.7947 0.5773
vn -0.0144 0.8363 0.5481
vn 0.1121 0.7594 0.6409
vn -0.5087 0.6369 0.5792
vn -0.3854 0.5955 0.7049
vn -0.2287 0.6726 0.7038
vn -0.1026 0.5955 0.7968
vn 0.0711 0.6369 0.7676
vn 0.1685 0.5545 0.8149
vn 0.1260 0.9878 0.0916
vn 0.2079 0.9158 0.3438
vn 0.2860 0.7594 0.5843
vn 0.2334 0.9575 0.1696
vn 0.3899 0.9164 0.0906
vn 0.3338 0.8363 0.4350
vn 0.4911 0.7947 0.3568
vn 0.5168 0.8363 0.1830
vn 0.6441 0.7594 0.0915
vn 0.3936 0.6369 0.6628
vn 0.5513 0.5955 0.5843
vn 0.5987 0.6726 0.4350
vn 0.7261 0.5955 0.3438
vn 0.7520 0.6369 0.1696
vn 0.8271 0.5545 0.0916
vn 0.9050 0.3987 -0.1482
vn 0.9366 0.1745 -0.3039
vn 0.8883 -0.0784 -0.4526
vn 0.8963 0.3485 -0.2744
vn 0.8039 0.4399 -0.4003
vn 0.8869 0.0962 -0.4519
vn 0.7947 0.1876 -0.5773
vn 0.7544 0.3611 -0.5481
vn 0.6291 0.4399 -0.6409
vn 0.7972 -0.1702 -0.5792
vn 0.7049 -0.0784 -0.7049
vn 0.7038 0.0962 -0.7038
vn 0.5785 0.1745 -0.7968
vn 0.5379 0.3485 -0.7676
vn 0.4206 0.3987 -0.8149
vn 0.1387 0.3987 -0.9065
vn 0.0004 0.1745 -0.9846
vn -0.1560 -0.0784 -0.9846
vn 0.0160 0.3485 -0.9372
vn -0.1323 0.4399 -0.8883
vn -0.1557 0.0962 -0.9831
vn -0.3035 0.1876 -0.9342
vn -0.2882 0.3611 -0.8869
vn -0.4151 0.4399 -0.7964
vn -0.3045 -0.1702 -0.9372
vn -0.4526 -0.0784 -0.8883
vn -0.4519 0.0962 -0.8869
vn -0.5791 0.1745 -0.7964
vn -0.5638 0.3485 -0.7488
vn -0.6451 0.3987 -0.6519
vn -0.8193 0.3987 -0.4121
vn -0.9363 0.1745 -0.3046
vn -0.9846 -0.0784 -0.1560
vn -0.8864 0.3485 -0.3049
vn -0.8857 0.4399 -0.1487
vn -0.9831 0.0962 -0.1557
vn -0.9822 0.1876 -0.0000
vn -0.9325 0.3611 -0.0000
vn -0.8857 0.4399 0.1487
vn -0.9854 -0.1702 -0.0000
vn -0.9846 -0.0784 0.1560
vn -0.9831 0.0962 0.1557
vn -0.9363 0.1745 0.3046
vn -0.8864 0.3485 0.3049
vn -0.8193 0.3987 0.4121
vn -0.6451 0.3987 0.6519
vn -0.5791 0.1745 0.7964
vn -0.4526 -0.0784 0.8883
vn -0.5638 0.3485 0.7488
vn -0.4151 0.4399 0.7964
vn -0.4519 0.0962 0.8869
vn -0.3035 0.1876 0.9342
vn -0.2882 0.3611 0.8869
vn -0.1323 0.4399 0.8883
vn -0.3045 -0.1702 0.9372
vn -0.1560 -0.0784 0.9846
vn -0.1557 0.0962 0.9831
vn 0.0004 0.1745 0.9846
vn 0.0160 0.3485 0.9372
vn 0.1387 0.3987 0.9065
vn 0.4206 0.3987 0.8149
vn 0.5785 0.1745 0.7968
vn 0.7049 -0.0784 0.7049
vn 0.5379 0.3485 0.7676
vn 0.6291 0.4399 0.6409
vn 0.7038 0.0962 0.7038
vn 0.7947 0.1876 0.5773
vn 0.7544 0.3611 0.5481
vn 0.8039 0.4399 0.4003
vn 0.7972 -0.1702 0.5792
vn 0.8883 -0.0784 0.4526
vn 0.8869 0.0962 0.4519
vn 0.9366 0.1745 0.3039
vn 0.8963 0.3485 0.2744
vn 0.9050 0.3987 0.1482
vn 0.2945 0.3024 -0.9065
vn 0.4526 0.0784 -0.8883
vn 0.5791 -0.1745 -0.7964
vn 0.3045 0.1702 -0.9372
vn 0.1560 0.0784 -0.9846
vn 0.4519 -0.0962 -0.8869
vn 0.3035 -0.1876 -0.9342
vn 0.1557 -0.0962 -0.9831
vn -0.0004 -0.1745 -0.9846
vn 0.5638 -0.3485 -0.7488
vn 0.4151 -0.4399 -0.7964
vn 0.2882 -0.3611 -0.8869
vn 0.1323 -0.4399 -0.8883
vn -0.0160 -0.3485 -0.9372
vn -0.1387 -0.3987 -0.9065
vn -0.7711 0.3024 -0.5603
vn -0.7049 0.0784 -0.7049
vn -0.5785 -0.1745 -0.7968
vn -0.7972 0.1702 -0.5792
vn -0.8883 0.0784 -0.4526
vn -0.7038 -0.0962 -0.7038
vn -0.7947 -0.1876 -0.5774
vn -0.8869 -0.0962 -0.4519
vn -0.9366 -0.1745 -0.3039
vn -0.5379 -0.3485 -0.7676
vn -0.6291 -0.4399 -0.6409
vn -0.7544 -0.3611 -0.5481
vn -0.8039 -0.4399 -0.4003
vn -0.8963 -0.3485 -0.2744
vn -0.9050 -0.3987 -0.1482
vn -0.7711 0.3024 0.5603
vn -0.8883 0.0784 0.4526
vn -0.9366 -0.1745 0.3039
vn -0.7972 0.1702 0.5792
vn -0.7049 0.0784 0.7049
vn -0.8869 -0.0962 0.4519
vn -0.7947 -0.1876 0.5774
vn -0.7038 -0.0962 0.7038
vn -0.5785 -0.1745 0.7968
vn -0.8963 -0.3485 0.2744
vn -0.8039 -0.4399 0.4003
vn -0.7544 -0.3611 0.5481
vn -0.6291 -0.4399 0.6409
vn -0.5379 -0.3485 0.7676
vn -0.4206 -0.3987 0.8149
vn 0.2945 0.3024 0.9065
vn 0.1560 0.0784 0.9846
vn -0.0004 -0.1745 0.9846
vn 0.3045 0.1702 0.9372
vn 0.4526 0.0784 0.8883
vn 0.1557 -0.0962 0.9831
vn 0.3035 -0.1876 0.9342
vn 0.4519 -0.0962 0.8869
vn 0.5791 -0.1745 0.7964
vn -0.0160 -0.3485 0.9372
vn 0.1323 -0.4399 0.8883
vn 0.2882 -0.3611 0.8869
vn 0.4151 -0.4399 0.7964
vn 0.5638 -0.3485 0.7488
vn 0.6451 -0.3987 0.6519
vn 0.9532 0.3024 0.0000
vn 0.9846 0.0784 0.1560
vn 0.9363 -0.1745 0.3046
vn 0.9854 0.1702 0.0000
vn 0.9846 0.0784 -0.1560
vn 0.9831 -0.0962 0.1557
vn 0.9822 -0.1876 0.0000
vn 0.9831 -0.0962 -0.1557
vn 0.9363 -0.1745 -0.3046
vn 0.8864 -0.3485 0.3049
vn 0.8857 -0.4399 0.1487
vn 0.9325 -0.3611 0.0000
vn 0.8857 -0.4399 -0.1487
vn 0.8864 -0.3485 -0.3049
vn 0.8193 -0.3987 -0.4121
vn 0.6153 -0.5545 -0.5603
vn 0.4674 -0.7594 -0.4526
vn 0.2627 -0.9158 -0.3039
vn 0.5087 -0.6369 -0.5792
vn 0.3854 -0.5955 -0.7049
vn 0.3105 -0.8363 -0.4519
vn 0.1876 -0.7947 -0.5773
vn 0.2287 -0.6726 -0.7038
vn 0.1026 -0.5955 -0.7968
vn 0.0891 -0.9575 -0.2744
vn -0.0339 -0.9158 -0.4003
vn 0.0144 -0.8363 -0.5481
vn -0.1121 -0.7594 -0.6409
vn -0.0711 -0.6369 -0.7676
vn -0.1685 -0.5545 -0.8149
vn -0.3427 -0.5545 -0.7583
vn -0.2860 -0.7594 -0.5843
vn -0.2079 -0.9158 -0.3438
vn -0.3936 -0.6369 -0.6628
vn -0.5513 -0.5955 -0.5843
vn -0.3338 -0.8363 -0.4350
vn -0.4911 -0.7947 -0.3568
vn -0.5987 -0.6726 -0.4350
vn -0.7261 -0.5955 -0.3438
vn -0.2334 -0.9575 -0.1696
vn -0.3912 -0.9158 -0.0914
vn -0.5168 -0.8363 -0.1830
vn -0.6441 -0.7594 -0.0915
vn -0.7520 -0.6369 -0.1696
vn -0.8271 -0.5545 -0.0916
vn -0.8271 -0.5545 0.0916
vn -0.6441 -0.7594 0.0915
vn -0.3912 -0.9158 0.0914
vn -0.7520 -0.6369 0.1696
vn -0.7261 -0.5955 0.3438
vn -0.5168 -0.8363 0.1830
vn -0.4911 -0.7947 0.3568
vn -0.5987 -0.6726 0.4350
vn -0.5513 -0.5955 0.5843
vn -0.2334 -0.9575 0.1696
vn -0.2079 -0.9158 0.3438
vn -0.3338 -0.8363 0.4350
vn -0.2860 -0.7594 0.5843
vn -0.3936 -0.6369 0.6628
vn -0.3427 -0.5545 0.7583
vn 0.7230 -0.5545 -0.4121
vn 0.7895 -0.5955 -0.1487
vn 0.7895 -0.5955 0.1487
vn 0.7081 -0.6369 -0.3049
vn 0.5749 -0.7594 -0.3046
vn 0.7400 -0.6726 -0.0000
vn 0.6071 -0.7947 0.0000
vn 0.5257 -0.8363 -0.1557
vn 0.3702 -0.9158 -0.1559
vn 0.7081 -0.6369 0.3049
vn 0.5749 -0.7594 0.3046
vn 0.5257 -0.8363 0.1557
vn 0.3702 -0.9158 0.1560
vn 0.2885 -0.9575 0.0000
vn 0.1558 -0.9878 0.0000
vn -0.1685 -0.5545 0.8149
vn -0.1121 -0.7594 0.6409
vn -0.0339 -0.9158 0.4003
vn -0.0711 -0.6369 0.7676
vn 0.1026 -0.5955 0.7968
vn 0.0144 -0.8363 0.5481
vn 0.1876 -0.7947 0.5773
vn 0.2287 -0.6726 0.7038
vn 0.3854 -0.5955 0.7049
vn 0.0891 -0.9575 0.2744
vn 0.2627 -0.9158 0.3039
vn 0.3105 -0.8363 0.4519
vn 0.4674 -0.7594 0.4526
vn 0.5087 -0.6369 0.5792
vn 0.6153 -0.5545 0.5603
vn 0.1261 0.9878 -0.0916
vn 0.2482 0.9551 -0.1617
vn 0.2334 0.9575 -0.1693
vn 0.2280 0.9581 -0.1731
vn -0.1588 0.9873 0.0006
vn -0.1559 0.9878 0.0000
vn 0.1261 0.9878 0.0916
vn 0.2334 0.9575 0.1693
vn 0.2596 0.9530 0.1563
vn 0.2304 0.9579 0.1714
vn 0.1260 0.9878 -0.0916
usemtl None
s off
f 192//113 193//113 194//113
f 195//114 196//114 197//114
f 192//115 194//115 198//115
f 192//116 198//116 199//116
f 192//117 199//117 200//117
f 195//118 197//118 201//118
f 202//119 203//119 204//119
f 205//120 206//120 207//120
f 208//121 209//121 210//121
f 211//122 212//122 213//122
f 195//123 201//123 214//123
f 202//124 204//124 215//124
f 205//125 207//125 216//125
f 208//126 210//126 217//126
f 211//127 213//127 218//127
f 219//128 220//128 221//128
f 222//129 223//129 224//129
f 225//130 226//130 227//130
f 228//131 229//131 230//131
f 231//132 232//132 233//132
f 234//133 235//133 236//133
f 233//134 237//134 234//134
f 238//135 239//135 235//135
f 235//136 240//136 241//136
f 234//137 237//137 235//137
f 237//138 242//138 235//138
f 235//139 242//139 240//139
f 242//140 230//140 240//140
f 233//141 232//141 237//141
f 232//142 243//142 237//142
f 237//143 243//143 242//143
f 243//144 244//144 242//144
f 242//145 244//145 230//145
f 244//146 228//146 230//146
f 241//147 245//147 246//147
f 240//148 247//148 241//148
f 230//149 248//149 240//149
f 241//150 247//150 245//150
f 247//151 249//151 245//151
f 240//152 248//152 247//152
f 248//153 250//153 247//153
f 247//154 250//154 249//154
f 250//155 227//155 249//155
f 230//156 229//156 248//156
f 229//157 251//157 248//157
f 248//158 251//158 250//158
f 251//159 252//159 250//159
f 250//160 252//160 227//160
f 252//161 225//161 227//161
f 253//162 254//162 246//162
f 249//163 255//163 245//163
f 227//164 256//164 249//164
f 245//165 255//165 257//165
f 255//166 258//166 259//166
f 249//167 256//167 255//167
f 256//168 260//168 255//168
f 255//169 260//169 258//169
f 260//170 224//170 258//170
f 227//171 226//171 256//171
f 226//172 261//172 256//172
f 256//173 261//173 260//173
f 261//174 262//174 260//174
f 260//175 262//175 224//175
f 262//176 222//176 224//176
f 259//177 263//177 246//177
f 258//178 264//178 259//178
f 224//179 265//179 258//179
f 259//180 264//180 263//180
f 264//181 266//181 263//181
f 258//182 265//182 264//182
f 265//183 267//183 264//183
f 264//184 267//184 266//184
f 267//185 221//185 266//185
f 224//186 223//186 265//186
f 223//187 268//187 265//187
f 265//188 268//188 267//188
f 268//189 269//189 267//189
f 267//190 269//190 221//190
f 269//191 219//191 221//191
f 263//192 270//192 271//192
f 266//193 272//193 263//193
f 221//194 273//194 266//194
f 272//195 274//195 275//195
f 272//196 234//196 236//196
f 266//197 273//197 272//197
f 273//198 276//198 272//198
f 272//199 276//199 234//199
f 276//200 233//200 234//200
f 221//201 220//201 273//201
f 220//202 277//202 273//202
f 273//203 277//203 276//203
f 277//204 278//204 276//204
f 276//205 278//205 233//205
f 278//206 231//206 233//206
f 279//207 232//207 231//207
f 280//208 281//208 279//208
f 218//209 282//209 280//209
f 279//210 281//210 232//210
f 281//211 243//211 232//211
f 280//212 282//212 281//212
f 282//213 283//213 281//213
f 281//214 283//214 243//214
f 283//215 244//215 243//215
f 218//216 213//216 282//216
f 213//217 284//217 282//217
f 282//218 284//218 283//218
f 284//219 285//219 283//219
f 283//220 285//220 244//220
f 285//221 228//221 244//221
f 286//222 229//222 228//222
f 287//223 288//223 286//223
f 217//224 289//224 287//224
f 286//225 288//225 229//225
f 288//226 251//226 229//226
f 287//227 289//227 288//227
f 289//228 290//228 288//228
f 288//229 290//229 251//229
f 290//230 252//230 251//230
f 217//231 210//231 289//231
f 210//232 291//232 289//232
f 289//233 291//233 290//233
f 291//234 292//234 290//234
f 290//235 292//235 252//235
f 292//236 225//236 252//236
f 293//237 226//237 225//237
f 294//238 295//238 293//238
f 216//239 296//239 294//239
f 293//240 295//240 226//240
f 295//241 261//241 226//241
f 294//242 296//242 295//242
f 296//243 297//243 295//243
f 295//244 297//244 261//244
f 297//245 262//245 261//245
f 216//246 207//246 296//246
f 207//247 298//247 296//247
f 296//248 298//248 297//248
f 298//249 299//249 297//249
f 297//250 299//250 262//250
f 299//251 222//251 262//251
f 300//252 223//252 222//252
f 301//253 302//253 300//253
f 215//254 303//254 301//254
f 300//255 302//255 223//255
f 302//256 268//256 223//256
f 301//257 303//257 302//257
f 303//258 304//258 302//258
f 302//259 304//259 268//259
f 304//260 269//260 268//260
f 215//261 204//261 303//261
f 204//262 305//262 303//262
f 303//263 305//263 304//263
f 305//264 306//264 304//264
f 304//265 306//265 269//265
f 306//266 219//266 269//266
f 307//267 220//267 219//267
f 308//268 309//268 307//268
f 214//269 310//269 308//269
f 307//270 309//270 220//270
f 309//271 277//271 220//271
f 308//272 310//272 309//272
f 310//273 311//273 309//273
f 309//274 311//274 277//274
f 311//275 278//275 277//275
f 214//276 201//276 310//276
f 201//277 312//277 310//277
f 310//278 312//278 311//278
f 312//279 313//279 311//279
f 311//280 313//280 278//280
f 313//281 231//281 278//281
f 285//282 286//282 228//282
f 284//283 314//283 285//283
f 213//284 315//284 284//284
f 285//285 314//285 286//285
f 314//286 287//286 286//286
f 284//287 315//287 314//287
f 315//288 316//288 314//288
f 314//289 316//289 287//289
f 316//290 217//290 287//290
f 213//291 212//291 315//291
f 212//292 317//292 315//292
f 315//293 317//293 316//293
f 317//294 318//294 316//294
f 316//295 318//295 217//295
f 318//296 208//296 217//296
f 292//297 293//297 225//297
f 291//298 319//298 292//298
f 210//299 320//299 291//299
f 292//300 319//300 293//300
f 319//301 294//301 293//301
f 291//302 320//302 319//302
f 320//303 321//303 319//303
f 319//304 321//304 294//304
f 321//305 216//305 294//305
f 210//306 209//306 320//306
f 209//307 322//307 320//307
f 320//308 322//308 321//308
f 322//309 323//309 321//309
f 321//310 323//310 216//310
f 323//311 205//311 216//311
f 299//312 300//312 222//312
f 298//313 324//313 299//313
f 207//314 325//314 298//314
f 299//315 324//315 300//315
f 324//316 301//316 300//316
f 298//317 325//317 324//317
f 325//318 326//318 324//318
f 324//319 326//319 301//319
f 326//320 215//320 301//320
f 207//321 206//321 325//321
f 206//322 327//322 325//322
f 325//323 327//323 326//323
f 327//324 328//324 326//324
f 326//325 328//325 215//325
f 328//326 202//326 215//326
f 306//327 307//327 219//327
f 305//328 329//328 306//328
f 204//329 330//329 305//329
f 306//330 329//330 307//330
f 329//331 308//331 307//331
f 305//332 330//332 329//332
f 330//333 331//333 329//333
f 329//334 331//334 308//334
f 331//335 214//335 308//335
f 204//336 203//336 330//336
f 203//337 332//337 330//337
f 330//338 332//338 331//338
f 332//339 333//339 331//339
f 331//340 333//340 214//340
f 333//341 195//341 214//341
f 313//342 279//342 231//342
f 312//343 334//343 313//343
f 201//344 335//344 312//344
f 313//345 334//345 279//345
f 334//346 280//346 279//346
f 312//347 335//347 334//347
f 335//348 336//348 334//348
f 334//349 336//349 280//349
f 336//350 218//350 280//350
f 201//351 197//351 335//351
f 197//352 337//352 335//352
f 335//353 337//353 336//353
f 337//354 338//354 336//354
f 336//355 338//355 218//355
f 338//356 211//356 218//356
f 339//357 212//357 211//357
f 340//358 341//358 339//358
f 200//359 342//359 340//359
f 339//360 341//360 212//360
f 341//361 317//361 212//361
f 340//362 342//362 341//362
f 342//363 343//363 341//363
f 341//364 343//364 317//364
f 343//365 318//365 317//365
f 200//366 199//366 342//366
f 199//367 344//367 342//367
f 342//368 344//368 343//368
f 344//369 345//369 343//369
f 343//370 345//370 318//370
f 345//371 208//371 318//371
f 345//372 209//372 208//372
f 344//373 346//373 345//373
f 199//374 347//374 344//374
f 345//375 346//375 209//375
f 346//376 322//376 209//376
f 344//377 347//377 346//377
f 347//378 348//378 346//378
f 346//379 348//379 322//379
f 348//380 323//380 322//380
f 199//381 198//381 347//381
f 198//382 349//382 347//382
f 347//383 349//383 348//383
f 349//384 350//384 348//384
f 348//385 350//385 323//385
f 350//386 205//386 323//386
f 350//387 206//387 205//387
f 349//388 351//388 350//388
f 198//389 352//389 349//389
f 350//390 351//390 206//390
f 351//391 327//391 206//391
f 349//392 352//392 351//392
f 352//393 353//393 351//393
f 351//394 353//394 327//394
f 353//395 328//395 327//395
f 198//396 194//396 352//396
f 194//397 354//397 352//397
f 352//398 354//398 353//398
f 354//399 355//399 353//399
f 353//400 355//400 328//400
f 355//401 202//401 328//401
f 338//402 339//402 211//402
f 337//403 356//403 338//403
f 197//404 357//404 337//404
f 338//405 356//405 339//405
f 356//406 340//406 339//406
f 337//407 357//407 356//407
f 357//408 358//408 356//408
f 356//409 358//409 340//409
f 358//410 200//410 340//410
f 197//411 196//411 357//411
f 196//412 359//412 357//412
f 357//413 359//413 358//413
f 359//414 193//414 358//414
f 358//415 193//415 200//415
f 193//416 192//416 200//416
f 355//417 203//417 202//417
f 354//418 360//418 355//418
f 194//419 361//419 354//419
f 355//420 360//420 203//420
f 360//421 332//421 203//421
f 354//422 361//422 360//422
f 361//423 362//423 360//423
f 360//424 362//424 332//424
f 362//425 333//425 332//425
f 194//426 193//426 361//426
f 193//427 359//427 361//427
f 361//428 359//428 362//428
f 359//429 196//429 362//429
f 362//430 196//430 333//430
f 196//431 195//431 333//431
f 386//432 365//432 241//432
f 239//433 236//433 235//433
f 235//434 241//434 364//434
f 364//435 384//435 235//435
f 384//135 238//135 235//135
f 245//436 382//436 381//436
f 381//162 374//162 245//162
f 374//162 373//162 245//162
f 393//437 367//437 259//437
f 385//162 388//162 259//162
f 388//162 392//162 259//162
f 392//162 393//162 259//162
f 246//162 245//162 373//162
f 246//162 373//162 363//162
f 259//162 246//162 385//162
f 246//162 363//162 253//162
f 254//162 385//162 246//162
f 259//165 367//165 368//165
f 368//165 370//165 259//165
f 370//165 369//165 259//165
f 383//165 382//165 245//165
f 257//165 379//165 245//165
f 379//165 383//165 245//165
f 377//165 375//165 255//165
f 375//165 257//165 255//165
f 259//165 369//165 255//165
f 369//165 376//165 255//165
f 376//165 377//165 255//165
f 263//192 380//192 378//192
f 263//438 378//438 389//438
f 371//438 246//438 372//438
f 246//438 263//438 271//438
f 271//438 372//438 246//438
f 263//438 389//438 270//438
f 380//439 263//439 272//439
f 272//440 236//440 274//440
f 275//195 366//195 272//195
f 366//441 380//441 272//441
f 246//432 371//432 391//432
f 390//442 387//442 241//442
f 387//432 386//432 241//432
f 246//432 391//432 390//432
f 365//442 364//442 241//442
f 246//432 390//432 241//432
