# Blender v2.79 (sub 0) OBJ File: 'link_split.blend'
# www.blender.org
mtllib link.mtl
o link_original.021
v -0.457365 -0.398607 -0.058778
v -0.409812 -0.383156 -0.095105
v -0.351033 -0.364058 -0.095105
v -0.303481 -0.348607 -0.058778
v -0.285317 -0.342705 -0.000000
v -0.351033 -0.364057 0.095106
v -0.409812 -0.383156 0.095106
v -0.457365 -0.398607 0.058778
v -0.404509 -0.543893 -0.000000
v -0.475528 -0.404508 -0.000000
v -0.389058 -0.532667 -0.058778
v -0.298607 -0.466950 -0.095105
v -0.258156 -0.437561 -0.058778
v -0.242705 -0.426335 -0.000000
v -0.303481 -0.348607 0.058778
v -0.258156 -0.437561 0.058779
v -0.298607 -0.466950 0.095106
v -0.389058 -0.532667 0.058779
v -0.348607 -0.503278 -0.095105
v -0.348607 -0.503278 0.095106
vn -0.8484 -0.4323 -0.3056
vn -0.5280 -0.2690 -0.8055
vn 0.0000 0.0000 -1.0000
vn 0.5280 0.2690 -0.8055
vn 0.8484 0.4323 -0.3056
vn 0.8484 0.4323 0.3056
vn 0.5280 0.2690 0.8055
vn -0.0000 -0.0000 1.0000
vn -0.5280 -0.2690 0.8055
vn -0.8484 -0.4323 0.3056
usemtl None
s off
f 9//1 10//1 1//1
f 11//2 1//2 2//2
f 2//3 3//3 12//3
f 12//4 3//4 4//4
f 13//5 4//5 5//5
f 14//6 5//6 15//6
f 16//7 15//7 6//7
f 17//8 6//8 7//8
f 7//9 8//9 18//9
f 18//10 8//10 10//10
f 9//1 1//1 11//1
f 11//2 2//2 19//2
f 2//3 12//3 19//3
f 12//4 4//4 13//4
f 13//5 5//5 14//5
f 14//6 15//6 16//6
f 16//7 6//7 17//7
f 17//8 7//8 20//8
f 7//9 18//9 20//9
f 18//10 10//10 9//10
o link_original.020
v -0.404509 -0.543893 -0.000000
v -0.389058 -0.532667 -0.058778
v -0.298607 -0.466950 -0.095105
v -0.258156 -0.437561 -0.058778
v -0.242705 -0.426335 -0.000000
v -0.258156 -0.437561 0.058779
v -0.298607 -0.466950 0.095106
v -0.389058 -0.532667 0.058779
v -0.282667 -0.639058 -0.058778
v -0.348607 -0.503278 -0.095105
v -0.216951 -0.548607 -0.095105
v -0.187561 -0.508156 -0.058778
v -0.187561 -0.508156 0.058779
v -0.348607 -0.503278 0.095106
v -0.253278 -0.598607 0.095106
v -0.282667 -0.639058 0.058779
v -0.293893 -0.654508 -0.000000
v -0.253278 -0.598607 -0.095105
v -0.176336 -0.492705 -0.000000
v -0.216951 -0.548607 0.095106
vn -0.6733 -0.6733 -0.3056
vn -0.4190 -0.4190 -0.8055
vn 0.0000 0.0000 -1.0000
vn 0.4190 0.4190 -0.8055
vn 0.6733 0.6733 -0.3056
vn 0.6733 0.6733 0.3056
vn 0.4190 0.4190 0.8055
vn -0.0000 -0.0000 1.0000
vn -0.4190 -0.4190 0.8055
vn -0.6733 -0.6733 0.3056
usemtl None
s off
f 21//11 22//11 29//11
f 29//12 22//12 30//12
f 30//13 23//13 31//13
f 31//14 23//14 24//14
f 32//15 24//15 25//15
f 25//16 26//16 33//16
f 33//17 26//17 27//17
f 27//18 34//18 35//18
f 35//19 34//19 28//19
f 36//20 28//20 21//20
f 21//11 29//11 37//11
f 29//12 30//12 38//12
f 30//13 31//13 38//13
f 31//14 24//14 32//14
f 32//15 25//15 39//15
f 25//16 33//16 39//16
f 33//17 27//17 40//17
f 27//18 35//18 40//18
f 35//19 28//19 36//19
f 36//20 21//20 37//20
o link_original.019
v -0.282667 -0.639058 -0.058778
v -0.216951 -0.548607 -0.095105
v -0.187561 -0.508156 -0.058778
v -0.187561 -0.508156 0.058779
v -0.253278 -0.598607 0.095106
v -0.282667 -0.639058 0.058779
v -0.154509 -0.725528 -0.000000
v -0.293893 -0.654508 -0.000000
v -0.253278 -0.598607 -0.095105
v -0.133156 -0.659812 -0.095105
v -0.114058 -0.601033 -0.095105
v -0.098607 -0.553481 -0.058778
v -0.176336 -0.492705 -0.000000
v -0.092705 -0.535317 -0.000000
v -0.098607 -0.553480 0.058779
v -0.216951 -0.548607 0.095106
v -0.114058 -0.601033 0.095106
v -0.133156 -0.659812 0.095106
v -0.148607 -0.707365 -0.058778
v -0.148607 -0.707365 0.058779
vn -0.4323 -0.8484 -0.3056
vn -0.2690 -0.5280 -0.8055
vn 0.0000 0.0000 -1.0000
vn 0.2690 0.5280 -0.8055
vn 0.4323 0.8484 -0.3056
vn 0.4323 0.8484 0.3056
vn 0.2690 0.5280 0.8055
vn 0.0000 -0.0000 1.0000
vn -0.2690 -0.5280 0.8055
vn -0.4323 -0.8484 0.3056
usemtl None
s off
f 47//21 48//21 41//21
f 41//22 49//22 50//22
f 49//23 42//23 51//23
f 51//24 42//24 43//24
f 52//25 43//25 53//25
f 54//26 53//26 44//26
f 55//27 44//27 56//27
f 57//28 56//28 45//28
f 58//29 45//29 46//29
f 46//30 48//30 47//30
f 47//21 41//21 59//21
f 41//22 50//22 59//22
f 49//23 51//23 50//23
f 51//24 43//24 52//24
f 52//25 53//25 54//25
f 54//26 44//26 55//26
f 55//27 56//27 57//27
f 57//28 45//28 58//28
f 58//29 46//29 60//29
f 46//30 47//30 60//30
o link_original.018
v -0.154509 -0.725528 -0.000000
v -0.133156 -0.659812 -0.095105
v -0.114058 -0.601033 -0.095105
v -0.098607 -0.553481 -0.058778
v -0.092705 -0.535317 -0.000000
v -0.098607 -0.553480 0.058779
v -0.114058 -0.601033 0.095106
v -0.133156 -0.659812 0.095106
v -0.148607 -0.707365 -0.058778
v 0.000000 -0.730902 -0.058778
v 0.000000 -0.619098 -0.095105
v 0.000000 -0.550000 -0.000000
v 0.000000 -0.569098 0.058779
v 0.000000 -0.619098 0.095106
v -0.148607 -0.707365 0.058779
v 0.000000 -0.730902 0.058779
v 0.000000 -0.750000 -0.000000
v 0.000000 -0.680902 -0.095105
v 0.000000 -0.569098 -0.058778
v 0.000000 -0.680902 0.095106
vn -0.1490 -0.9404 -0.3056
vn -0.0927 -0.5853 -0.8055
vn 0.0000 0.0000 -1.0000
vn 0.0927 0.5853 -0.8055
vn 0.1490 0.9404 -0.3056
vn 0.1490 0.9404 0.3056
vn 0.0927 0.5853 0.8055
vn 0.0000 -0.0000 1.0000
vn -0.0927 -0.5853 0.8055
vn -0.1490 -0.9405 0.3056
vn 0.1489 0.9404 -0.3056
vn -0.1490 -0.9404 0.3056
usemtl None
s off
f 61//31 69//31 70//31
f 70//32 69//32 62//32
f 62//33 63//33 71//33
f 71//34 63//34 64//34
f 64//35 65//35 72//35
f 72//36 65//36 66//36
f 73//37 66//37 67//37
f 74//38 67//38 68//38
f 68//39 75//39 76//39
f 76//40 75//40 61//40
f 61//31 70//31 77//31
f 70//32 62//32 78//32
f 62//33 71//33 78//33
f 71//34 64//34 79//34
f 64//41 72//41 79//41
f 72//36 66//36 73//36
f 73//37 67//37 74//37
f 74//38 68//38 80//38
f 68//39 76//39 80//39
f 76//42 61//42 77//42
o link_original.017
v 0.000000 -0.730902 -0.058778
v 0.000000 -0.619098 -0.095105
v 0.000000 -0.550000 -0.000000
v 0.000000 -0.569098 0.058779
v 0.000000 -0.619098 0.095106
v 0.000000 -0.730902 0.058779
v 0.154509 -0.725528 -0.000000
v 0.000000 -0.750000 -0.000000
v 0.148607 -0.707365 -0.058778
v 0.000000 -0.680902 -0.095105
v 0.133156 -0.659812 -0.095105
v 0.114058 -0.601033 -0.095105
v 0.000000 -0.569098 -0.058778
v 0.098607 -0.553481 -0.058778
v 0.092705 -0.535317 -0.000000
v 0.098607 -0.553480 0.058779
v 0.114058 -0.601033 0.095106
v 0.000000 -0.680902 0.095106
v 0.133156 -0.659812 0.095106
v 0.148607 -0.707365 0.058779
vn 0.1490 -0.9404 -0.3056
vn 0.0927 -0.5853 -0.8055
vn 0.0000 0.0000 -1.0000
vn -0.0927 0.5853 -0.8055
vn -0.1489 0.9404 -0.3056
vn -0.1490 0.9404 0.3056
vn -0.0927 0.5853 0.8055
vn -0.0000 -0.0000 1.0000
vn 0.0927 -0.5853 0.8055
vn 0.1490 -0.9404 0.3056
vn -0.1490 0.9404 -0.3056
vn 0.1490 -0.9405 0.3056
usemtl None
s off
f 87//43 88//43 81//43
f 89//44 81//44 90//44
f 91//45 90//45 82//45
f 92//46 82//46 93//46
f 94//47 93//47 83//47
f 95//48 83//48 84//48
f 96//49 84//49 85//49
f 97//50 85//50 98//50
f 99//51 98//51 86//51
f 86//52 88//52 87//52
f 87//43 81//43 89//43
f 89//44 90//44 91//44
f 91//45 82//45 92//45
f 92//46 93//46 94//46
f 94//53 83//53 95//53
f 95//48 84//48 96//48
f 96//49 85//49 97//49
f 97//50 98//50 99//50
f 99//51 86//51 100//51
f 86//54 87//54 100//54
o link_original.016
v 0.154509 -0.725528 -0.000000
v 0.148607 -0.707365 -0.058778
v 0.133156 -0.659812 -0.095105
v 0.114058 -0.601033 -0.095105
v 0.098607 -0.553481 -0.058778
v 0.092705 -0.535317 -0.000000
v 0.098607 -0.553480 0.058779
v 0.114058 -0.601033 0.095106
v 0.133156 -0.659812 0.095106
v 0.293892 -0.654509 -0.000000
v 0.253277 -0.598607 -0.095105
v 0.216950 -0.548607 -0.095105
v 0.187561 -0.508156 -0.058778
v 0.176335 -0.492705 -0.000000
v 0.187561 -0.508156 0.058779
v 0.216950 -0.548607 0.095106
v 0.148607 -0.707365 0.058779
v 0.282667 -0.639058 0.058779
v 0.282667 -0.639058 -0.058778
v 0.253277 -0.598607 0.095106
vn 0.4323 -0.8484 -0.3056
vn 0.2690 -0.5280 -0.8055
vn 0.0000 0.0000 -1.0000
vn -0.2690 0.5280 -0.8055
vn -0.4323 0.8484 -0.3056
vn -0.4323 0.8484 0.3056
vn -0.2690 0.5280 0.8055
vn 0.0000 -0.0000 1.0000
vn 0.2690 -0.5280 0.8055
vn 0.4323 -0.8484 0.3056
usemtl None
s off
f 110//55 101//55 102//55
f 102//56 103//56 111//56
f 111//57 103//57 104//57
f 112//58 104//58 105//58
f 113//59 105//59 106//59
f 114//60 106//60 107//60
f 115//61 107//61 108//61
f 116//62 108//62 109//62
f 109//63 117//63 118//63
f 118//64 117//64 101//64
f 110//55 102//55 119//55
f 102//56 111//56 119//56
f 111//57 104//57 112//57
f 112//58 105//58 113//58
f 113//59 106//59 114//59
f 114//60 107//60 115//60
f 115//61 108//61 116//61
f 116//62 109//62 120//62
f 109//63 118//63 120//63
f 118//64 101//64 110//64
o link_original.015
v 0.293892 -0.654509 -0.000000
v 0.253277 -0.598607 -0.095105
v 0.216950 -0.548607 -0.095105
v 0.187561 -0.508156 -0.058778
v 0.176335 -0.492705 -0.000000
v 0.187561 -0.508156 0.058779
v 0.216950 -0.548607 0.095106
v 0.282667 -0.639058 0.058779
v 0.282667 -0.639058 -0.058778
v 0.389058 -0.532667 -0.058778
v 0.348607 -0.503278 -0.095105
v 0.298607 -0.466951 -0.095105
v 0.242705 -0.426336 -0.000000
v 0.258156 -0.437561 0.058779
v 0.298607 -0.466951 0.095106
v 0.253277 -0.598607 0.095106
v 0.348607 -0.503278 0.095106
v 0.389058 -0.532667 0.058779
v 0.404508 -0.543893 -0.000000
v 0.258156 -0.437561 -0.058778
vn 0.6733 -0.6733 -0.3056
vn 0.4190 -0.4190 -0.8055
vn 0.0000 0.0000 -1.0000
vn -0.4190 0.4190 -0.8055
vn -0.6733 0.6733 -0.3056
vn -0.6733 0.6733 0.3056
vn -0.4190 0.4190 0.8055
vn -0.0000 -0.0000 1.0000
vn 0.4190 -0.4190 0.8055
vn 0.6733 -0.6733 0.3056
usemtl None
s off
f 121//65 129//65 130//65
f 129//66 122//66 131//66
f 131//67 122//67 123//67
f 132//68 123//68 124//68
f 124//69 125//69 133//69
f 133//70 125//70 126//70
f 134//71 126//71 127//71
f 135//72 127//72 136//72
f 137//73 136//73 128//73
f 138//74 128//74 121//74
f 121//65 130//65 139//65
f 129//66 131//66 130//66
f 131//67 123//67 132//67
f 132//68 124//68 140//68
f 124//69 133//69 140//69
f 133//70 126//70 134//70
f 134//71 127//71 135//71
f 135//72 136//72 137//72
f 137//73 128//73 138//73
f 138//74 121//74 139//74
o link_original.014
v 0.389058 -0.532667 -0.058778
v 0.348607 -0.503278 -0.095105
v 0.298607 -0.466951 -0.095105
v 0.242705 -0.426336 -0.000000
v 0.258156 -0.437561 0.058779
v 0.298607 -0.466951 0.095106
v 0.348607 -0.503278 0.095106
v 0.389058 -0.532667 0.058779
v 0.475528 -0.404509 -0.000000
v 0.404508 -0.543893 -0.000000
v 0.457365 -0.398607 -0.058778
v 0.351033 -0.364058 -0.095105
v 0.258156 -0.437561 -0.058778
v 0.303480 -0.348607 -0.058778
v 0.285317 -0.342705 -0.000000
v 0.303480 -0.348607 0.058778
v 0.351033 -0.364058 0.095106
v 0.457365 -0.398607 0.058778
v 0.409812 -0.383156 -0.095105
v 0.409812 -0.383156 0.095106
vn 0.8484 -0.4323 -0.3056
vn 0.5280 -0.2690 -0.8055
vn 0.0000 0.0000 -1.0000
vn -0.5280 0.2690 -0.8055
vn -0.8484 0.4323 -0.3056
vn -0.8484 0.4323 0.3056
vn -0.5280 0.2690 0.8055
vn -0.0000 -0.0000 1.0000
vn 0.5280 -0.2690 0.8055
vn 0.8484 -0.4323 0.3056
usemtl None
s off
f 149//75 150//75 141//75
f 151//76 141//76 142//76
f 142//77 143//77 152//77
f 152//78 143//78 153//78
f 154//79 153//79 144//79
f 155//80 144//80 145//80
f 156//81 145//81 146//81
f 157//82 146//82 147//82
f 147//83 148//83 158//83
f 158//84 148//84 150//84
f 149//75 141//75 151//75
f 151//76 142//76 159//76
f 142//77 152//77 159//77
f 152//78 153//78 154//78
f 154//79 144//79 155//79
f 155//80 145//80 156//80
f 156//81 146//81 157//81
f 157//82 147//82 160//82
f 147//83 158//83 160//83
f 158//84 150//84 149//84
o link_original.013
v -0.457365 0.398607 -0.058778
v -0.409812 0.383156 -0.095105
v -0.351033 0.364058 -0.095105
v -0.303481 0.348607 -0.058778
v -0.285317 0.342705 0.000000
v -0.351033 0.364057 0.095106
v -0.409812 0.383156 0.095106
v -0.457365 0.398607 0.058778
v -0.404509 0.543893 0.000000
v -0.475528 0.404508 0.000000
v -0.389058 0.532667 -0.058778
v -0.298607 0.466950 -0.095105
v -0.258156 0.437561 -0.058778
v -0.242705 0.426335 0.000000
v -0.303481 0.348607 0.058778
v -0.258156 0.437561 0.058779
v -0.298607 0.466950 0.095106
v -0.389058 0.532667 0.058779
v -0.348607 0.503278 -0.095105
v -0.348607 0.503278 0.095106
vn -0.8484 0.4323 -0.3056
vn -0.5280 0.2690 -0.8055
vn 0.0000 0.0000 -1.0000
vn 0.5280 -0.2690 -0.8055
vn 0.8484 -0.4323 -0.3056
vn 0.8484 -0.4323 0.3056
vn 0.5280 -0.2690 0.8055
vn -0.0000 -0.0000 1.0000
vn -0.5280 0.2690 0.8055
vn -0.8484 0.4323 0.3056
usemtl None
s off
f 169//85 161//85 170//85
f 171//86 162//86 161//86
f 162//87 172//87 163//87
f 172//88 164//88 163//88
f 173//89 165//89 164//89
f 174//90 175//90 165//90
f 176//91 166//91 175//91
f 177//92 167//92 166//92
f 167//93 178//93 168//93
f 178//94 170//94 168//94
f 169//85 171//85 161//85
f 171//86 179//86 162//86
f 162//87 179//87 172//87
f 172//88 173//88 164//88
f 173//89 174//89 165//89
f 174//90 176//90 175//90
f 176//91 177//91 166//91
f 177//92 180//92 167//92
f 167//93 180//93 178//93
f 178//94 169//94 170//94
o link_original.012
v -0.404509 0.543893 0.000000
v -0.389058 0.532667 -0.058778
v -0.298607 0.466950 -0.095105
v -0.258156 0.437561 -0.058778
v -0.242705 0.426335 0.000000
v -0.258156 0.437561 0.058779
v -0.298607 0.466950 0.095106
v -0.389058 0.532667 0.058779
v -0.282667 0.639058 -0.058778
v -0.348607 0.503278 -0.095105
v -0.216951 0.548607 -0.095105
v -0.187561 0.508156 -0.058778
v -0.187561 0.508156 0.058779
v -0.253278 0.598607 0.095106
v -0.348607 0.503278 0.095106
v -0.282667 0.639058 0.058779
v -0.293893 0.654508 0.000000
v -0.253278 0.598607 -0.095105
v -0.176336 0.492705 0.000000
v -0.216951 0.548607 0.095106
vn -0.6733 0.6733 -0.3056
vn -0.4190 0.4190 -0.8055
vn 0.0000 0.0000 -1.0000
vn 0.4190 -0.4190 -0.8055
vn 0.6733 -0.6733 -0.3056
vn 0.6733 -0.6733 0.3056
vn 0.4190 -0.4190 0.8055
vn 0.0000 -0.0000 1.0000
vn -0.4190 0.4190 0.8055
vn -0.6733 0.6733 0.3056
usemtl None
s off
f 181//95 189//95 182//95
f 189//96 190//96 182//96
f 190//97 191//97 183//97
f 191//98 184//98 183//98
f 192//99 185//99 184//99
f 185//100 193//100 186//100
f 193//101 187//101 186//101
f 187//102 194//102 195//102
f 194//103 188//103 195//103
f 196//104 181//104 188//104
f 181//95 197//95 189//95
f 189//96 198//96 190//96
f 190//97 198//97 191//97
f 191//98 192//98 184//98
f 192//99 199//99 185//99
f 185//100 199//100 193//100
f 193//101 200//101 187//101
f 187//102 200//102 194//102
f 194//103 196//103 188//103
f 196//104 197//104 181//104
o link_original.011
v -0.282667 0.639058 -0.058778
v -0.216951 0.548607 -0.095105
v -0.187561 0.508156 -0.058778
v -0.187561 0.508156 0.058779
v -0.253278 0.598607 0.095106
v -0.282667 0.639058 0.058779
v -0.154509 0.725528 0.000000
v -0.293893 0.654508 0.000000
v -0.133156 0.659812 -0.095105
v -0.253278 0.598607 -0.095105
v -0.114058 0.601033 -0.095105
v -0.098607 0.553481 -0.058778
v -0.176336 0.492705 0.000000
v -0.092705 0.535317 0.000000
v -0.098607 0.553480 0.058779
v -0.216951 0.548607 0.095106
v -0.114058 0.601033 0.095106
v -0.133156 0.659812 0.095106
v -0.148607 0.707365 -0.058778
v -0.148607 0.707365 0.058779
vn -0.4323 0.8484 -0.3056
vn -0.2690 0.5280 -0.8055
vn 0.0000 0.0000 -1.0000
vn 0.2690 -0.5280 -0.8055
vn 0.4323 -0.8484 -0.3056
vn 0.4323 -0.8484 0.3056
vn 0.2690 -0.5280 0.8055
vn 0.0000 -0.0000 1.0000
vn -0.2690 0.5280 0.8055
vn -0.4323 0.8484 0.3056
usemtl None
s off
f 207//105 201//105 208//105
f 201//106 209//106 210//106
f 210//107 211//107 202//107
f 211//108 203//108 202//108
f 212//109 213//109 203//109
f 214//110 204//110 213//110
f 215//111 216//111 204//111
f 217//112 205//112 216//112
f 218//113 206//113 205//113
f 206//114 207//114 208//114
f 207//105 219//105 201//105
f 201//106 219//106 209//106
f 210//107 209//107 211//107
f 211//108 212//108 203//108
f 212//109 214//109 213//109
f 214//110 215//110 204//110
f 215//111 217//111 216//111
f 217//112 218//112 205//112
f 218//113 220//113 206//113
f 206//114 220//114 207//114
o link_original.010
v -0.154509 0.725528 0.000000
v -0.133156 0.659812 -0.095105
v -0.114058 0.601033 -0.095105
v -0.098607 0.553481 -0.058778
v -0.092705 0.535317 0.000000
v -0.098607 0.553480 0.058779
v -0.114058 0.601033 0.095106
v -0.133156 0.659812 0.095106
v 0.000000 0.730902 -0.058778
v -0.148607 0.707365 -0.058778
v 0.000000 0.619098 -0.095105
v 0.000000 0.550000 0.000000
v 0.000000 0.569098 0.058779
v 0.000000 0.619098 0.095106
v 0.000000 0.730902 0.058779
v -0.148607 0.707365 0.058779
v 0.000000 0.750000 0.000000
v 0.000000 0.680902 -0.095105
v 0.000000 0.569098 -0.058778
v 0.000000 0.680902 0.095106
vn -0.1490 0.9404 -0.3056
vn -0.0927 0.5853 -0.8055
vn 0.0000 0.0000 -1.0000
vn 0.0927 -0.5853 -0.8055
vn 0.1490 -0.9404 -0.3056
vn 0.1490 -0.9404 0.3056
vn 0.0927 -0.5853 0.8055
vn 0.0000 -0.0000 1.0000
vn -0.0927 0.5853 0.8055
vn -0.1490 0.9405 0.3056
vn 0.1489 -0.9404 -0.3056
vn -0.1490 0.9404 0.3056
usemtl None
s off
f 221//115 229//115 230//115
f 229//116 222//116 230//116
f 222//117 231//117 223//117
f 231//118 224//118 223//118
f 224//119 232//119 225//119
f 232//120 226//120 225//120
f 233//121 227//121 226//121
f 234//122 228//122 227//122
f 228//123 235//123 236//123
f 235//124 221//124 236//124
f 221//115 237//115 229//115
f 229//116 238//116 222//116
f 222//117 238//117 231//117
f 231//118 239//118 224//118
f 224//125 239//125 232//125
f 232//120 233//120 226//120
f 233//121 234//121 227//121
f 234//122 240//122 228//122
f 228//123 240//123 235//123
f 235//126 237//126 221//126
o link_original.009
v 0.000000 0.730902 -0.058778
v 0.000000 0.619098 -0.095105
v 0.000000 0.550000 0.000000
v 0.000000 0.569098 0.058779
v 0.000000 0.619098 0.095106
v 0.000000 0.730902 0.058779
v 0.154509 0.725528 0.000000
v 0.000000 0.750000 0.000000
v 0.148607 0.707365 -0.058778
v 0.000000 0.680902 -0.095105
v 0.133156 0.659812 -0.095105
v 0.114058 0.601033 -0.095105
v 0.000000 0.569098 -0.058778
v 0.098607 0.553481 -0.058778
v 0.092705 0.535317 0.000000
v 0.098607 0.553480 0.058779
v 0.114058 0.601033 0.095106
v 0.000000 0.680902 0.095106
v 0.133156 0.659812 0.095106
v 0.148607 0.707365 0.058779
vn 0.1490 0.9404 -0.3056
vn 0.0927 0.5853 -0.8055
vn -0.0000 0.0000 -1.0000
vn -0.0927 -0.5853 -0.8055
vn -0.1489 -0.9404 -0.3056
vn -0.1490 -0.9404 0.3056
vn -0.0927 -0.5853 0.8055
vn 0.0000 -0.0000 1.0000
vn 0.0927 0.5853 0.8055
vn 0.1490 0.9404 0.3056
vn -0.1490 -0.9404 -0.3056
vn 0.1490 0.9405 0.3056
usemtl None
s off
f 247//127 241//127 248//127
f 249//128 250//128 241//128
f 251//129 242//129 250//129
f 252//130 253//130 242//130
f 254//131 243//131 253//131
f 255//132 244//132 243//132
f 256//133 245//133 244//133
f 257//134 258//134 245//134
f 259//135 246//135 258//135
f 246//136 247//136 248//136
f 247//127 249//127 241//127
f 249//128 251//128 250//128
f 251//129 252//129 242//129
f 252//130 254//130 253//130
f 254//137 255//137 243//137
f 255//132 256//132 244//132
f 256//133 257//133 245//133
f 257//134 259//134 258//134
f 259//135 260//135 246//135
f 246//138 260//138 247//138
o link_original.008
v 0.154509 0.725528 0.000000
v 0.148607 0.707365 -0.058778
v 0.133156 0.659812 -0.095105
v 0.114058 0.601033 -0.095105
v 0.098607 0.553481 -0.058778
v 0.092705 0.535317 0.000000
v 0.098607 0.553480 0.058779
v 0.114058 0.601033 0.095106
v 0.133156 0.659812 0.095106
v 0.293892 0.654509 0.000000
v 0.253277 0.598607 -0.095105
v 0.216950 0.548607 -0.095105
v 0.187561 0.508156 -0.058778
v 0.176335 0.492705 0.000000
v 0.187561 0.508156 0.058779
v 0.216950 0.548607 0.095106
v 0.282667 0.639058 0.058779
v 0.148607 0.707365 0.058779
v 0.282667 0.639058 -0.058778
v 0.253277 0.598607 0.095106
vn 0.4323 0.8484 -0.3056
vn 0.2690 0.5280 -0.8055
vn 0.0000 0.0000 -1.0000
vn -0.2690 -0.5280 -0.8055
vn -0.4323 -0.8484 -0.3056
vn -0.4323 -0.8484 0.3056
vn -0.2690 -0.5280 0.8055
vn 0.0000 -0.0000 1.0000
vn 0.2690 0.5280 0.8055
vn 0.4323 0.8484 0.3056
usemtl None
s off
f 270//139 262//139 261//139
f 262//140 271//140 263//140
f 271//141 264//141 263//141
f 272//142 265//142 264//142
f 273//143 266//143 265//143
f 274//144 267//144 266//144
f 275//145 268//145 267//145
f 276//146 269//146 268//146
f 269//147 277//147 278//147
f 277//148 261//148 278//148
f 270//139 279//139 262//139
f 262//140 279//140 271//140
f 271//141 272//141 264//141
f 272//142 273//142 265//142
f 273//143 274//143 266//143
f 274//144 275//144 267//144
f 275//145 276//145 268//145
f 276//146 280//146 269//146
f 269//147 280//147 277//147
f 277//148 270//148 261//148
o link_original.007
v 0.293892 0.654509 0.000000
v 0.253277 0.598607 -0.095105
v 0.216950 0.548607 -0.095105
v 0.187561 0.508156 -0.058778
v 0.176335 0.492705 0.000000
v 0.187561 0.508156 0.058779
v 0.216950 0.548607 0.095106
v 0.282667 0.639058 0.058779
v 0.389058 0.532667 -0.058778
v 0.282667 0.639058 -0.058778
v 0.348607 0.503278 -0.095105
v 0.298607 0.466951 -0.095105
v 0.242705 0.426336 0.000000
v 0.258156 0.437561 0.058779
v 0.298607 0.466951 0.095106
v 0.253277 0.598607 0.095106
v 0.348607 0.503278 0.095106
v 0.389058 0.532667 0.058779
v 0.404508 0.543893 0.000000
v 0.258156 0.437561 -0.058778
vn 0.6733 0.6733 -0.3056
vn 0.4190 0.4190 -0.8055
vn 0.0000 0.0000 -1.0000
vn -0.4190 -0.4190 -0.8055
vn -0.6733 -0.6733 -0.3056
vn -0.6733 -0.6733 0.3056
vn -0.4190 -0.4190 0.8055
vn 0.0000 -0.0000 1.0000
vn 0.4190 0.4190 0.8055
vn 0.6733 0.6733 0.3056
usemtl None
s off
f 281//149 289//149 290//149
f 290//150 291//150 282//150
f 291//151 283//151 282//151
f 292//152 284//152 283//152
f 284//153 293//153 285//153
f 293//154 286//154 285//154
f 294//155 287//155 286//155
f 295//156 296//156 287//156
f 297//157 288//157 296//157
f 298//158 281//158 288//158
f 281//149 299//149 289//149
f 290//150 289//150 291//150
f 291//151 292//151 283//151
f 292//152 300//152 284//152
f 284//153 300//153 293//153
f 293//154 294//154 286//154
f 294//155 295//155 287//155
f 295//156 297//156 296//156
f 297//157 298//157 288//157
f 298//158 299//158 281//158
o link_original.006
v 0.389058 0.532667 -0.058778
v 0.348607 0.503278 -0.095105
v 0.298607 0.466951 -0.095105
v 0.242705 0.426336 0.000000
v 0.258156 0.437561 0.058779
v 0.298607 0.466951 0.095106
v 0.348607 0.503278 0.095106
v 0.389058 0.532667 0.058779
v 0.475528 0.404509 0.000000
v 0.404508 0.543893 0.000000
v 0.457365 0.398607 -0.058778
v 0.351033 0.364058 -0.095105
v 0.258156 0.437561 -0.058778
v 0.303480 0.348607 -0.058778
v 0.285317 0.342705 0.000000
v 0.303480 0.348607 0.058778
v 0.351033 0.364058 0.095106
v 0.457365 0.398607 0.058778
v 0.409812 0.383156 -0.095105
v 0.409812 0.383156 0.095106
vn 0.8484 0.4323 -0.3056
vn 0.5280 0.2690 -0.8055
vn 0.0000 0.0000 -1.0000
vn -0.5280 -0.2690 -0.8055
vn -0.8484 -0.4323 -0.3056
vn -0.8484 -0.4323 0.3056
vn -0.5280 -0.2690 0.8055
vn 0.0000 -0.0000 1.0000
vn 0.5280 0.2690 0.8055
vn 0.8484 0.4323 0.3056
usemtl None
s off
f 309//159 301//159 310//159
f 311//160 302//160 301//160
f 302//161 312//161 303//161
f 312//162 313//162 303//162
f 314//163 304//163 313//163
f 315//164 305//164 304//164
f 316//165 306//165 305//165
f 317//166 307//166 306//166
f 307//167 318//167 308//167
f 318//168 310//168 308//168
f 309//159 311//159 301//159
f 311//160 319//160 302//160
f 302//161 319//161 312//161
f 312//162 314//162 313//162
f 314//163 315//163 304//163
f 315//164 316//164 305//164
f 316//165 317//165 306//165
f 317//166 320//166 307//166
f 307//167 320//167 318//167
f 318//168 309//168 310//168
o link_original.005
v 0.475528 0.404509 0.000000
v 0.457365 0.398607 -0.058778
v 0.351033 0.364058 -0.095105
v 0.303480 0.348607 -0.058778
v 0.285317 0.342705 0.000000
v 0.303480 0.348607 0.058778
v 0.351033 0.364058 0.095106
v 0.457365 0.398607 0.058778
v 0.500000 0.250000 0.000000
v 0.480902 0.250000 -0.058778
v 0.409812 0.383156 -0.095105
v 0.430902 0.250000 -0.095105
v 0.369098 0.250000 -0.095105
v 0.319098 0.250000 -0.058778
v 0.319098 0.250000 0.058778
v 0.369098 0.250000 0.095105
v 0.409812 0.383156 0.095106
v 0.430902 0.250000 0.095105
v 0.480902 0.250000 0.058778
v 0.300000 0.250000 0.000000
vn 0.9404 0.1490 -0.3056
vn 0.5853 0.0927 -0.8055
vn -0.0000 0.0000 -1.0000
vn -0.5853 -0.0927 -0.8055
vn -0.9404 -0.1490 -0.3056
vn -0.9404 -0.1490 0.3056
vn -0.5853 -0.0927 0.8055
vn 0.0000 -0.0000 1.0000
vn 0.5853 0.0927 0.8055
vn 0.9404 0.1490 0.3056
usemtl None
s off
f 329//169 322//169 321//169
f 330//170 331//170 322//170
f 332//171 323//171 331//171
f 333//172 324//172 323//172
f 334//173 325//173 324//173
f 325//174 335//174 326//174
f 335//175 327//175 326//175
f 336//176 337//176 327//176
f 338//177 328//177 337//177
f 339//178 321//178 328//178
f 329//169 330//169 322//169
f 330//170 332//170 331//170
f 332//171 333//171 323//171
f 333//172 334//172 324//172
f 334//173 340//173 325//173
f 325//174 340//174 335//174
f 335//175 336//175 327//175
f 336//176 338//176 337//176
f 338//177 339//177 328//177
f 339//178 329//178 321//178
o link_original.004
v 0.475528 -0.404509 -0.000000
v 0.457365 -0.398607 -0.058778
v 0.351033 -0.364058 -0.095105
v 0.303480 -0.348607 -0.058778
v 0.285317 -0.342705 -0.000000
v 0.303480 -0.348607 0.058778
v 0.351033 -0.364058 0.095106
v 0.457365 -0.398607 0.058778
v 0.500000 -0.250000 -0.000000
v 0.480902 -0.250000 -0.058778
v 0.409812 -0.383156 -0.095105
v 0.430902 -0.250000 -0.095105
v 0.369098 -0.250000 -0.095105
v 0.319098 -0.250000 -0.058778
v 0.319098 -0.250000 0.058778
v 0.369098 -0.250000 0.095105
v 0.409812 -0.383156 0.095106
v 0.430902 -0.250000 0.095105
v 0.480902 -0.250000 0.058778
v 0.300000 -0.250000 -0.000000
vn 0.9404 -0.1490 -0.3056
vn 0.5853 -0.0927 -0.8055
vn 0.0000 0.0000 -1.0000
vn -0.5853 0.0927 -0.8055
vn -0.9404 0.1490 -0.3056
vn -0.9404 0.1490 0.3056
vn -0.5853 0.0927 0.8055
vn 0.0000 0.0000 1.0000
vn 0.5853 -0.0927 0.8055
vn 0.9404 -0.1490 0.3056
usemtl None
s off
f 349//179 341//179 342//179
f 350//180 342//180 351//180
f 352//181 351//181 343//181
f 353//182 343//182 344//182
f 354//183 344//183 345//183
f 345//184 346//184 355//184
f 355//185 346//185 347//185
f 356//186 347//186 357//186
f 358//187 357//187 348//187
f 359//188 348//188 341//188
f 349//179 342//179 350//179
f 350//180 351//180 352//180
f 352//181 343//181 353//181
f 353//182 344//182 354//182
f 354//183 345//183 360//183
f 345//184 355//184 360//184
f 355//185 347//185 356//185
f 356//186 357//186 358//186
f 358//187 348//187 359//187
f 359//188 341//188 349//188
o link_original.003
v 0.500000 0.250000 0.000000
v 0.480902 0.250000 -0.058778
v 0.430902 0.250000 -0.095105
v 0.369098 0.250000 -0.095105
v 0.319098 0.250000 -0.058778
v 0.319098 0.250000 0.058778
v 0.369098 0.250000 0.095105
v 0.430902 0.250000 0.095105
v 0.480902 0.250000 0.058778
v 0.300000 0.250000 0.000000
v 0.500000 -0.250000 -0.000000
v 0.480902 -0.250000 -0.058778
v 0.430902 -0.250000 -0.095105
v 0.369098 -0.250000 -0.095105
v 0.319098 -0.250000 -0.058778
v 0.319098 -0.250000 0.058778
v 0.369098 -0.250000 0.095105
v 0.430902 -0.250000 0.095105
v 0.480902 -0.250000 0.058778
v 0.300000 -0.250000 -0.000000
vn 0.5878 0.0000 -0.8090
vn 0.0000 0.0000 -1.0000
vn -0.5878 0.0000 -0.8090
vn -0.9511 0.0000 -0.3090
vn -0.9511 -0.0000 0.3090
vn -0.5878 -0.0000 0.8090
vn 0.0000 -0.0000 1.0000
vn 0.5878 -0.0000 0.8090
vn 0.9511 -0.0000 0.3090
vn 0.9511 -0.0000 -0.3090
usemtl None
s off
f 373//189 362//189 372//189
f 374//190 363//190 373//190
f 375//191 364//191 374//191
f 380//192 365//192 375//192
f 376//193 370//193 380//193
f 377//194 366//194 376//194
f 378//195 367//195 377//195
f 379//196 368//196 378//196
f 371//197 369//197 379//197
f 372//198 361//198 371//198
f 373//189 363//189 362//189
f 374//190 364//190 363//190
f 375//191 365//191 364//191
f 380//192 370//192 365//192
f 376//193 366//193 370//193
f 377//194 367//194 366//194
f 378//195 368//195 367//195
f 379//196 369//196 368//196
f 371//197 361//197 369//197
f 372//198 362//198 361//198
o link_original.002
v -0.500000 0.250000 0.000000
v -0.457365 0.398607 -0.058778
v -0.480902 0.250000 -0.058778
v -0.430902 0.250000 -0.095105
v -0.409812 0.383156 -0.095105
v -0.369098 0.250000 -0.095105
v -0.351033 0.364058 -0.095105
v -0.319098 0.250000 -0.058778
v -0.303481 0.348607 -0.058778
v -0.300000 0.250000 0.000000
v -0.285317 0.342705 0.000000
v -0.319098 0.250000 0.058778
v -0.351033 0.364057 0.095106
v -0.369098 0.250000 0.095105
v -0.409812 0.383156 0.095106
v -0.430902 0.250000 0.095105
v -0.480902 0.250000 0.058778
v -0.457365 0.398607 0.058778
v -0.475528 0.404508 0.000000
v -0.303481 0.348607 0.058778
vn -0.9404 0.1490 -0.3056
vn -0.5853 0.0927 -0.8055
vn 0.0000 0.0000 -1.0000
vn 0.5853 -0.0927 -0.8055
vn 0.9404 -0.1489 -0.3056
vn 0.9404 -0.1490 0.3056
vn 0.5853 -0.0927 0.8055
vn 0.0000 -0.0000 1.0000
vn -0.5853 0.0927 0.8055
vn -0.9404 0.1490 0.3056
vn 0.9404 -0.1490 -0.3056
vn 0.9404 -0.1489 0.3056
usemtl None
s off
f 381//199 382//199 383//199
f 382//200 384//200 383//200
f 385//201 386//201 384//201
f 387//202 388//202 386//202
f 389//203 390//203 388//203
f 391//204 392//204 390//204
f 392//205 393//205 394//205
f 394//206 395//206 396//206
f 395//207 397//207 396//207
f 398//208 381//208 397//208
f 381//199 399//199 382//199
f 382//200 385//200 384//200
f 385//201 387//201 386//201
f 387//202 389//202 388//202
f 389//209 391//209 390//209
f 391//210 400//210 392//210
f 392//205 400//205 393//205
f 394//206 393//206 395//206
f 395//207 398//207 397//207
f 398//208 399//208 381//208
o link_original.001
v -0.500000 0.250000 0.000000
v -0.480902 0.250000 -0.058778
v -0.430902 0.250000 -0.095105
v -0.369098 0.250000 -0.095105
v -0.319098 0.250000 -0.058778
v -0.300000 0.250000 0.000000
v -0.319098 0.250000 0.058778
v -0.369098 0.250000 0.095105
v -0.430902 0.250000 0.095105
v -0.480902 0.250000 0.058778
v -0.500000 -0.250000 -0.000000
v -0.480902 -0.250000 -0.058778
v -0.430902 -0.250000 -0.095105
v -0.369098 -0.250000 -0.095105
v -0.319098 -0.250000 -0.058778
v -0.300000 -0.250000 -0.000000
v -0.319098 -0.250000 0.058778
v -0.369098 -0.250000 0.095105
v -0.430902 -0.250000 0.095105
v -0.480902 -0.250000 0.058778
vn -0.9511 -0.0000 0.3090
vn -0.5878 -0.0000 0.8090
vn 0.0000 -0.0000 1.0000
vn 0.5878 -0.0000 0.8090
vn 0.9511 -0.0000 0.3090
vn 0.9511 -0.0000 -0.3090
vn 0.5878 0.0000 -0.8090
vn 0.0000 0.0000 -1.0000
vn -0.5878 0.0000 -0.8090
vn -0.9511 -0.0000 -0.3090
usemtl None
s off
f 420//211 401//211 411//211
f 419//212 410//212 420//212
f 418//213 409//213 419//213
f 417//214 408//214 418//214
f 416//215 407//215 417//215
f 415//216 406//216 416//216
f 414//217 405//217 415//217
f 413//218 404//218 414//218
f 412//219 403//219 413//219
f 411//220 402//220 412//220
f 420//211 410//211 401//211
f 419//212 409//212 410//212
f 418//213 408//213 409//213
f 417//214 407//214 408//214
f 416//215 406//215 407//215
f 415//216 405//216 406//216
f 414//217 404//217 405//217
f 413//218 403//218 404//218
f 412//219 402//219 403//219
f 411//220 401//220 402//220
o link_original
v -0.500000 -0.250000 -0.000000
v -0.480902 -0.250000 -0.058778
v -0.457365 -0.398607 -0.058778
v -0.430902 -0.250000 -0.095105
v -0.409812 -0.383156 -0.095105
v -0.369098 -0.250000 -0.095105
v -0.351033 -0.364058 -0.095105
v -0.319098 -0.250000 -0.058778
v -0.303481 -0.348607 -0.058778
v -0.300000 -0.250000 -0.000000
v -0.285317 -0.342705 -0.000000
v -0.319098 -0.250000 0.058778
v -0.369098 -0.250000 0.095105
v -0.351033 -0.364057 0.095106
v -0.430902 -0.250000 0.095105
v -0.409812 -0.383156 0.095106
v -0.480902 -0.250000 0.058778
v -0.457365 -0.398607 0.058778
v -0.475528 -0.404508 -0.000000
v -0.303481 -0.348607 0.058778
vn -0.9404 -0.1490 -0.3056
vn -0.5853 -0.0927 -0.8055
vn 0.0000 0.0000 -1.0000
vn 0.5853 0.0927 -0.8055
vn 0.9404 0.1489 -0.3056
vn 0.9404 0.1490 0.3056
vn 0.5853 0.0927 0.8055
vn 0.0000 0.0000 1.0000
vn -0.5853 -0.0927 0.8055
vn -0.9404 -0.1490 0.3056
vn 0.9404 0.1490 -0.3056
vn 0.9404 0.1489 0.3056
usemtl None
s off
f 421//221 422//221 423//221
f 423//222 422//222 424//222
f 425//223 424//223 426//223
f 427//224 426//224 428//224
f 429//225 428//225 430//225
f 431//226 430//226 432//226
f 432//227 433//227 434//227
f 433//228 435//228 436//228
f 436//229 435//229 437//229
f 438//230 437//230 421//230
f 421//221 423//221 439//221
f 423//222 424//222 425//222
f 425//223 426//223 427//223
f 427//224 428//224 429//224
f 429//231 430//231 431//231
f 431//232 432//232 440//232
f 432//227 434//227 440//227
f 433//228 436//228 434//228
f 436//229 437//229 438//229
f 438//230 421//230 439//230
