
v 0.000000 0.500000 0.000000
v -0.097545 0.490393 0.000000
v -0.191342 0.461940 0.000000
v -0.277785 0.415735 0.000000
v -0.353553 0.353553 0.000000
v -0.415735 0.277785 0.000000
v -0.461940 0.191342 0.000000
v -0.490393 0.097545 0.000000
v -0.500000 0.000000 0.000000
v -0.490393 -0.097545 -0.000000
v -0.461940 -0.191342 -0.000000
v -0.415735 -0.277785 -0.000000
v -0.353553 -0.353553 -0.000000
v -0.277785 -0.415735 -0.000000
v -0.191342 -0.461940 -0.000000
v -0.097545 -0.490393 -0.000000
v 0.000000 -0.500000 -0.000000
v 0.097545 -0.490393 -0.000000
v 0.191342 -0.461940 -0.000000
v 0.277785 -0.415735 -0.000000
v 0.353554 -0.353553 -0.000000
v 0.415735 -0.277785 -0.000000
v 0.461940 -0.191341 -0.000000
v 0.490393 -0.097545 -0.000000
v 0.500000 0.000000 0.000000
v 0.490393 0.097546 0.000000
v 0.461940 0.191342 0.000000
v 0.415734 0.277786 0.000000
v 0.353553 0.353554 0.000000
v 0.277785 0.415735 0.000000
v 0.191341 0.461940 0.000000
v 0.097544 0.490393 0.000000
v 0.000000 0.00000 0.000000

f 33 2 1
f 33  3 2
f 33  4 3
f 33  5 4
f 33  6 5
f 33  7 6
f 33  8 7
f 33  9 8
f 33  10 9
f 33  11 10
f 33  12 11
f 33  13 12
f 33  14 13
f 33  15 14
f 33  16 15
f 33  17 16
f 33  18 17
f 33  19 18
f 33  20 19
f 33  21 20
f 33  22 21
f 33  23 22
f 33  24 23
f 33  25 24
f 33  26 25
f 33  27 26
f 33  28 27
f 33  29 28
f 33  30 29
f 33  31 30
f 33  32 31
f 33  1 32
